Griffith_Gothic-Condensed_Bold.ufo
<glyph name="quotedbl" format="1">
  <advance width="315"/>
  <unicode hex="0022"/>
  <outline>
    <contour>
      <point x="278" y="720" type="line"/>
      <point x="253" y="480" type="line"/>
      <point x="209" y="480" type="line"/>
      <point x="184" y="720" type="line"/>
    </contour>
    <contour>
      <point x="131" y="720" type="line"/>
      <point x="106" y="480" type="line"/>
      <point x="61" y="480" type="line"/>
      <point x="36" y="720" type="line"/>
    </contour>
  </outline>
</glyph>
<glyph name="dollar" format="1">
  <advance width="444"/>
  <unicode hex="0024"/>
  <outline>
    <contour>
      <point x="423" y="192" type="curve" smooth="yes"/>
      <point x="423" y="76"/>
      <point x="348" y="9"/>
      <point x="252" y="-1" type="curve"/>
      <point x="252" y="-95" type="line"/>
      <point x="198" y="-95" type="line"/>
      <point x="198" y="-1" type="line"/>
      <point x="129" y="6"/>
      <point x="67" y="39"/>
      <point x="18" y="107" type="curve"/>
      <point x="76" y="164" type="line"/>
      <point x="113" y="112"/>
      <point x="155" y="82"/>
      <point x="203" y="76" type="curve"/>
      <point x="203" y="332" type="line"/>
      <point x="111" y="373"/>
      <point x="33" y="426"/>
      <point x="33" y="539" type="curve" smooth="yes"/>
      <point x="33" y="641"/>
      <point x="99" y="714"/>
      <point x="198" y="722" type="curve"/>
      <point x="198" y="762" type="line"/>
      <point x="251" y="762" type="line"/>
      <point x="251" y="722" type="line"/>
      <point x="318" y="714"/>
      <point x="367" y="683"/>
      <point x="411" y="624" type="curve"/>
      <point x="350" y="568" type="line"/>
      <point x="316" y="614"/>
      <point x="283" y="638"/>
      <point x="246" y="644" type="curve"/>
      <point x="246" y="406" type="line"/>
      <point x="368" y="353"/>
      <point x="423" y="292"/>
    </contour>
    <contour>
      <point x="203" y="425" type="curve"/>
      <point x="203" y="648" type="line"/>
      <point x="151" y="643"/>
      <point x="119" y="602"/>
      <point x="119" y="546" type="curve" smooth="yes"/>
      <point x="119" y="491"/>
      <point x="145" y="453"/>
    </contour>
    <contour>
      <point x="333" y="182" type="curve" smooth="yes"/>
      <point x="333" y="241"/>
      <point x="313" y="278"/>
      <point x="246" y="313" type="curve"/>
      <point x="246" y="73" type="line"/>
      <point x="300" y="80"/>
      <point x="333" y="117"/>
    </contour>
  </outline>
</glyph>
<glyph name="percent" format="1">
  <advance width="652"/>
  <unicode hex="0025"/>
  <outline>
    <contour>
      <point x="306" y="536" type="curve" smooth="yes"/>
      <point x="306" y="413"/>
      <point x="244" y="345"/>
      <point x="162" y="345" type="curve" smooth="yes"/>
      <point x="81" y="345"/>
      <point x="22" y="411"/>
      <point x="22" y="536" type="curve" smooth="yes"/>
      <point x="22" y="661"/>
      <point x="82" y="727"/>
      <point x="164" y="727" type="curve" smooth="yes"/>
      <point x="245" y="727"/>
      <point x="306" y="662"/>
    </contour>
    <contour>
      <point x="229" y="535" type="curve" smooth="yes"/>
      <point x="229" y="612"/>
      <point x="209" y="659"/>
      <point x="163" y="659" type="curve" smooth="yes"/>
      <point x="118" y="659"/>
      <point x="99" y="613"/>
      <point x="99" y="537" type="curve" smooth="yes"/>
      <point x="99" y="461"/>
      <point x="118" y="412"/>
      <point x="163" y="412" type="curve" smooth="yes"/>
      <point x="208" y="412"/>
      <point x="229" y="459"/>
    </contour>
    <contour>
      <point x="543" y="720" type="line"/>
      <point x="347" y="349" type="line"/>
      <point x="191" y="1" type="line"/>
      <point x="109" y="1" type="line"/>
      <point x="305" y="372" type="line"/>
      <point x="462" y="720" type="line"/>
    </contour>
    <contour>
      <point x="630" y="185" type="curve" smooth="yes"/>
      <point x="630" y="60"/>
      <point x="568" y="-7"/>
      <point x="487" y="-7" type="curve" smooth="yes"/>
      <point x="405" y="-7"/>
      <point x="346" y="59"/>
      <point x="346" y="185" type="curve" smooth="yes"/>
      <point x="346" y="308"/>
      <point x="407" y="375"/>
      <point x="488" y="375" type="curve" smooth="yes"/>
      <point x="570" y="375"/>
      <point x="630" y="310"/>
    </contour>
    <contour>
      <point x="553" y="184" type="curve" smooth="yes"/>
      <point x="553" y="261"/>
      <point x="533" y="308"/>
      <point x="487" y="308" type="curve" smooth="yes"/>
      <point x="443" y="308"/>
      <point x="423" y="262"/>
      <point x="423" y="186" type="curve" smooth="yes"/>
      <point x="423" y="110"/>
      <point x="442" y="61"/>
      <point x="487" y="61" type="curve" smooth="yes"/>
      <point x="532" y="61"/>
      <point x="553" y="108"/>
    </contour>
  </outline>
</glyph>
<glyph name="parenleft" format="1">
  <advance width="274"/>
  <unicode hex="0028"/>
  <outline>
    <contour>
      <point x="256" y="-95" type="curve"/>
      <point x="179" y="-95" type="line"/>
      <point x="105" y="2"/>
      <point x="39" y="135"/>
      <point x="39" y="320" type="curve" smooth="yes"/>
      <point x="39" y="505"/>
      <point x="105" y="638"/>
      <point x="179" y="735" type="curve"/>
      <point x="256" y="735" type="line"/>
      <point x="175" y="612"/>
      <point x="133" y="481"/>
      <point x="133" y="320" type="curve" smooth="yes"/>
      <point x="133" y="159"/>
      <point x="175" y="28"/>
    </contour>
  </outline>
</glyph>
<glyph name="parenright" format="1">
  <advance width="274"/>
  <unicode hex="0029"/>
  <outline>
    <contour>
      <point x="235" y="320" type="curve" smooth="yes"/>
      <point x="235" y="135"/>
      <point x="170" y="2"/>
      <point x="95" y="-95" type="curve"/>
      <point x="18" y="-95" type="line"/>
      <point x="99" y="28"/>
      <point x="141" y="159"/>
      <point x="141" y="320" type="curve" smooth="yes"/>
      <point x="141" y="481"/>
      <point x="99" y="612"/>
      <point x="18" y="735" type="curve"/>
      <point x="95" y="735" type="line"/>
      <point x="170" y="638"/>
      <point x="235" y="505"/>
    </contour>
  </outline>
</glyph>
<glyph name="asterisk" format="1">
  <advance width="330"/>
  <unicode hex="002A"/>
  <outline>
    <contour>
      <point x="306" y="595" type="line"/>
      <point x="190" y="580" type="line"/>
      <point x="278" y="499" type="line"/>
      <point x="218" y="455" type="line"/>
      <point x="165" y="564" type="line"/>
      <point x="112" y="455" type="line"/>
      <point x="52" y="499" type="line"/>
      <point x="140" y="580" type="line"/>
      <point x="24" y="595" type="line"/>
      <point x="47" y="664" type="line"/>
      <point x="150" y="605" type="line"/>
      <point x="128" y="720" type="line"/>
      <point x="202" y="720" type="line"/>
      <point x="180" y="605" type="line"/>
      <point x="283" y="664" type="line"/>
    </contour>
  </outline>
</glyph>
<glyph name="period" format="1">
  <advance width="174"/>
  <unicode hex="002E"/>
  <outline>
    <contour>
      <point x="148" y="51" type="curve" smooth="yes"/>
      <point x="148" y="17"/>
      <point x="123" y="-7"/>
      <point x="90" y="-7" type="curve" smooth="yes"/>
      <point x="57" y="-7"/>
      <point x="32" y="17"/>
      <point x="32" y="51" type="curve" smooth="yes"/>
      <point x="32" y="84"/>
      <point x="57" y="109"/>
      <point x="90" y="109" type="curve" smooth="yes"/>
      <point x="123" y="109"/>
      <point x="148" y="84"/>
    </contour>
  </outline>
</glyph>
<glyph name="zero" format="1">
  <advance width="484"/>
  <unicode hex="0030"/>
  <outline>
    <contour>
      <point x="450" y="302" type="line" smooth="yes"/>
      <point x="450" y="99"/>
      <point x="368" y="-12"/>
      <point x="242" y="-12" type="curve" smooth="yes"/>
      <point x="114" y="-12"/>
      <point x="34" y="98"/>
      <point x="34" y="301" type="curve" smooth="yes"/>
      <point x="34" y="418" type="line" smooth="yes"/>
      <point x="34" y="621"/>
      <point x="114" y="732"/>
      <point x="242" y="732" type="curve" smooth="yes"/>
      <point x="368" y="732"/>
      <point x="450" y="621"/>
      <point x="450" y="419" type="curve" smooth="yes"/>
    </contour>
    <contour>
      <point x="350" y="291" type="curve" smooth="yes"/>
      <point x="350" y="427" type="line" smooth="yes"/>
      <point x="350" y="559"/>
      <point x="316" y="655"/>
      <point x="242" y="655" type="curve" smooth="yes"/>
      <point x="168" y="655"/>
      <point x="133" y="560"/>
      <point x="133" y="429" type="curve" smooth="yes"/>
      <point x="133" y="293" type="line" smooth="yes"/>
      <point x="133" y="161"/>
      <point x="168" y="66"/>
      <point x="242" y="66" type="curve" smooth="yes"/>
      <point x="316" y="66"/>
      <point x="350" y="160"/>
    </contour>
  </outline>
</glyph>
<glyph name="one" format="1">
  <advance width="347"/>
  <unicode hex="0031"/>
  <outline>
    <contour>
      <point x="332" y="0" type="line"/>
      <point x="35" y="0" type="line"/>
      <point x="35" y="67" type="line"/>
      <point x="138" y="67" type="line"/>
      <point x="138" y="653" type="line"/>
      <point x="26" y="653" type="line"/>
      <point x="26" y="720" type="line"/>
      <point x="234" y="720" type="line"/>
      <point x="234" y="67" type="line"/>
      <point x="332" y="67" type="line"/>
    </contour>
  </outline>
</glyph>
<glyph name="five" format="1">
  <advance width="443"/>
  <unicode hex="0035"/>
  <outline>
    <contour>
      <point x="415" y="246" type="line" smooth="yes"/>
      <point x="415" y="68"/>
      <point x="318" y="-10"/>
      <point x="191" y="-10" type="curve" smooth="yes"/>
      <point x="123" y="-10"/>
      <point x="79" y="2"/>
      <point x="23" y="35" type="curve"/>
      <point x="57" y="110" type="line"/>
      <point x="107" y="80"/>
      <point x="138" y="71"/>
      <point x="185" y="71" type="curve" smooth="yes"/>
      <point x="268" y="71"/>
      <point x="314" y="134"/>
      <point x="314" y="244" type="curve" smooth="yes"/>
      <point x="314" y="248" type="line" smooth="yes"/>
      <point x="314" y="344"/>
      <point x="285" y="393"/>
      <point x="225" y="393" type="curve" smooth="yes"/>
      <point x="185" y="393"/>
      <point x="157" y="368"/>
      <point x="134" y="338" type="curve"/>
      <point x="52" y="338" type="line"/>
      <point x="80" y="720" type="line"/>
      <point x="384" y="720" type="line"/>
      <point x="384" y="637" type="line"/>
      <point x="150" y="637" type="line"/>
      <point x="131" y="404" type="line"/>
      <point x="137" y="404" type="line"/>
      <point x="162" y="438"/>
      <point x="198" y="465"/>
      <point x="254" y="465" type="curve" smooth="yes"/>
      <point x="351" y="465"/>
      <point x="415" y="399"/>
      <point x="415" y="255" type="curve" smooth="yes"/>
    </contour>
  </outline>
</glyph>
<glyph name="six" format="1">
  <advance width="461"/>
  <unicode hex="0036"/>
  <outline>
    <contour>
      <point x="439" y="232" type="curve" smooth="yes"/>
      <point x="439" y="79"/>
      <point x="357" y="-12"/>
      <point x="232" y="-12" type="curve" smooth="yes"/>
      <point x="107" y="-12"/>
      <point x="31" y="76"/>
      <point x="31" y="253" type="curve" smooth="yes"/>
      <point x="31" y="434"/>
      <point x="102" y="590"/>
      <point x="218" y="720" type="curve"/>
      <point x="340" y="720" type="line"/>
      <point x="227" y="611"/>
      <point x="154" y="482"/>
      <point x="132" y="379" type="curve"/>
      <point x="137" y="379" type="line"/>
      <point x="165" y="422"/>
      <point x="202" y="456"/>
      <point x="267" y="456" type="curve" smooth="yes"/>
      <point x="363" y="456"/>
      <point x="439" y="379"/>
    </contour>
    <contour>
      <point x="340" y="225" type="curve" smooth="yes"/>
      <point x="340" y="320"/>
      <point x="308" y="384"/>
      <point x="239" y="384" type="curve" smooth="yes"/>
      <point x="168" y="384"/>
      <point x="131" y="313"/>
      <point x="131" y="225" type="curve" smooth="yes"/>
      <point x="131" y="129"/>
      <point x="165" y="61"/>
      <point x="235" y="61" type="curve" smooth="yes"/>
      <point x="305" y="61"/>
      <point x="340" y="129"/>
    </contour>
  </outline>
</glyph>
<glyph name="seven" format="1">
  <advance width="419"/>
  <unicode hex="0037"/>
  <outline>
    <contour>
      <point x="404" y="661" type="line"/>
      <point x="297" y="483"/>
      <point x="209" y="224"/>
      <point x="175" y="0" type="curve"/>
      <point x="75" y="0" type="line"/>
      <point x="107" y="198"/>
      <point x="199" y="462"/>
      <point x="306" y="637" type="curve"/>
      <point x="16" y="637" type="line"/>
      <point x="16" y="720" type="line"/>
      <point x="404" y="720" type="line"/>
    </contour>
  </outline>
</glyph>
<glyph name="eight" format="1">
  <advance width="469"/>
  <unicode hex="0038"/>
  <outline>
    <contour>
      <point x="441" y="196" type="curve" smooth="yes"/>
      <point x="441" y="60"/>
      <point x="344" y="-12"/>
      <point x="234" y="-12" type="curve" smooth="yes"/>
      <point x="124" y="-12"/>
      <point x="28" y="58"/>
      <point x="28" y="194" type="curve" smooth="yes"/>
      <point x="28" y="300"/>
      <point x="83" y="362"/>
      <point x="139" y="382" type="curve"/>
      <point x="139" y="387" type="line"/>
      <point x="91" y="408"/>
      <point x="44" y="460"/>
      <point x="44" y="547" type="curve" smooth="yes"/>
      <point x="44" y="659"/>
      <point x="125" y="732"/>
      <point x="234" y="732" type="curve" smooth="yes"/>
      <point x="343" y="732"/>
      <point x="425" y="661"/>
      <point x="425" y="549" type="curve" smooth="yes"/>
      <point x="425" y="463"/>
      <point x="377" y="409"/>
      <point x="329" y="387" type="curve"/>
      <point x="329" y="382" type="line"/>
      <point x="385" y="362"/>
      <point x="441" y="301"/>
    </contour>
    <contour>
      <point x="330" y="537" type="curve" smooth="yes"/>
      <point x="330" y="615"/>
      <point x="297" y="661"/>
      <point x="234" y="661" type="curve" smooth="yes"/>
      <point x="171" y="661"/>
      <point x="138" y="614"/>
      <point x="138" y="539" type="curve" smooth="yes"/>
      <point x="138" y="461"/>
      <point x="176" y="413"/>
      <point x="234" y="413" type="curve" smooth="yes"/>
      <point x="292" y="413"/>
      <point x="330" y="456"/>
    </contour>
    <contour>
      <point x="342" y="201" type="curve" smooth="yes"/>
      <point x="342" y="295"/>
      <point x="298" y="351"/>
      <point x="234" y="351" type="curve" smooth="yes"/>
      <point x="169" y="351"/>
      <point x="126" y="297"/>
      <point x="126" y="203" type="curve" smooth="yes"/>
      <point x="126" y="112"/>
      <point x="167" y="59"/>
      <point x="234" y="59" type="curve" smooth="yes"/>
      <point x="300" y="59"/>
      <point x="342" y="110"/>
    </contour>
  </outline>
</glyph>
<glyph name="semicolon" format="1">
  <advance width="196"/>
  <unicode hex="003B"/>
  <outline>
    <contour>
      <point x="158" y="472" type="curve" smooth="yes"/>
      <point x="158" y="438"/>
      <point x="133" y="414"/>
      <point x="100" y="414" type="curve" smooth="yes"/>
      <point x="67" y="414"/>
      <point x="42" y="438"/>
      <point x="42" y="472" type="curve" smooth="yes"/>
      <point x="42" y="505"/>
      <point x="67" y="530"/>
      <point x="100" y="530" type="curve" smooth="yes"/>
      <point x="133" y="530"/>
      <point x="158" y="505"/>
    </contour>
    <contour>
      <point x="150" y="117" type="line"/>
      <point x="69" y="-110" type="line"/>
      <point x="25" y="-110" type="line"/>
      <point x="53" y="117" type="line"/>
    </contour>
  </outline>
</glyph>
<glyph name="less" format="1">
  <advance width="473"/>
  <unicode hex="003C"/>
  <outline>
    <contour>
      <point x="434" y="119" type="line"/>
      <point x="33" y="312" type="line"/>
      <point x="33" y="396" type="line"/>
      <point x="434" y="590" type="line"/>
      <point x="434" y="498" type="line"/>
      <point x="118" y="354" type="line"/>
      <point x="434" y="211" type="line"/>
    </contour>
  </outline>
</glyph>
<glyph name="equal" format="1">
  <advance width="471"/>
  <unicode hex="003D"/>
  <outline>
    <contour>
      <point x="429" y="428" type="line"/>
      <point x="42" y="428" type="line"/>
      <point x="42" y="506" type="line"/>
      <point x="429" y="506" type="line"/>
    </contour>
    <contour>
      <point x="429" y="214" type="line"/>
      <point x="42" y="214" type="line"/>
      <point x="42" y="292" type="line"/>
      <point x="429" y="292" type="line"/>
    </contour>
  </outline>
</glyph>
<glyph name="greater" format="1">
  <advance width="473"/>
  <unicode hex="003E"/>
  <outline>
    <contour>
      <point x="440" y="313" type="line"/>
      <point x="38" y="120" type="line"/>
      <point x="38" y="212" type="line"/>
      <point x="355" y="356" type="line"/>
      <point x="38" y="499" type="line"/>
      <point x="38" y="591" type="line"/>
      <point x="440" y="397" type="line"/>
    </contour>
  </outline>
</glyph>
<glyph name="question" format="1">
  <advance width="385"/>
  <unicode hex="003F"/>
  <outline>
    <contour>
      <point x="357" y="558" type="curve" smooth="yes"/>
      <point x="357" y="469"/>
      <point x="327" y="428"/>
      <point x="267" y="363" type="curve" smooth="yes"/>
      <point x="222" y="314"/>
      <point x="207" y="283"/>
      <point x="205" y="201" type="curve"/>
      <point x="149" y="201" type="line"/>
      <point x="138" y="313"/>
      <point x="149" y="355"/>
      <point x="207" y="422" type="curve" smooth="yes"/>
      <point x="246" y="468"/>
      <point x="262" y="504"/>
      <point x="262" y="554" type="curve" smooth="yes"/>
      <point x="262" y="615"/>
      <point x="235" y="654"/>
      <point x="190" y="654" type="curve" smooth="yes"/>
      <point x="144" y="654"/>
      <point x="117" y="621"/>
      <point x="95" y="536" type="curve"/>
      <point x="14" y="564" type="line"/>
      <point x="37" y="672"/>
      <point x="92" y="732"/>
      <point x="194" y="732" type="curve" smooth="yes"/>
      <point x="298" y="732"/>
      <point x="357" y="662"/>
    </contour>
    <contour>
      <point x="236" y="51" type="curve" smooth="yes"/>
      <point x="236" y="17"/>
      <point x="211" y="-7"/>
      <point x="178" y="-7" type="curve" smooth="yes"/>
      <point x="145" y="-7"/>
      <point x="120" y="17"/>
      <point x="120" y="51" type="curve" smooth="yes"/>
      <point x="120" y="84"/>
      <point x="145" y="109"/>
      <point x="178" y="109" type="curve" smooth="yes"/>
      <point x="211" y="109"/>
      <point x="236" y="84"/>
    </contour>
  </outline>
</glyph>
<glyph name="A" format="1">
  <advance width="539"/>
  <unicode hex="0041"/>
  <outline>
    <contour>
      <point x="523" y="0" type="line"/>
      <point x="418" y="0" type="line"/>
      <point x="376" y="178" type="line"/>
      <point x="158" y="178" type="line"/>
      <point x="116" y="0" type="line"/>
      <point x="16" y="0" type="line"/>
      <point x="200" y="724" type="line"/>
      <point x="339" y="724" type="line"/>
    </contour>
    <contour>
      <point x="363" y="252" type="line"/>
      <point x="270" y="634" type="line"/>
      <point x="265" y="634" type="line"/>
      <point x="172" y="252" type="line"/>
    </contour>
  </outline>
</glyph>
<glyph name="B" format="1">
  <advance width="482"/>
  <unicode hex="0042"/>
  <outline>
    <contour>
      <point x="457" y="200" type="curve" smooth="yes"/>
      <point x="457" y="71"/>
      <point x="371" y="0"/>
      <point x="238" y="0" type="curve" smooth="yes"/>
      <point x="54" y="0" type="line"/>
      <point x="54" y="720" type="line"/>
      <point x="239" y="720" type="line" smooth="yes"/>
      <point x="360" y="720"/>
      <point x="434" y="655"/>
      <point x="434" y="546" type="curve" smooth="yes"/>
      <point x="434" y="457"/>
      <point x="383" y="410"/>
      <point x="324" y="389" type="curve"/>
      <point x="324" y="385" type="line"/>
      <point x="404" y="362"/>
      <point x="457" y="308"/>
    </contour>
    <contour>
      <point x="338" y="537" type="curve" smooth="yes"/>
      <point x="338" y="612"/>
      <point x="297" y="650"/>
      <point x="229" y="650" type="curve" smooth="yes"/>
      <point x="153" y="650" type="line"/>
      <point x="153" y="416" type="line"/>
      <point x="226" y="416" type="line" smooth="yes"/>
      <point x="294" y="416"/>
      <point x="338" y="456"/>
    </contour>
    <contour>
      <point x="359" y="206" type="curve" smooth="yes"/>
      <point x="359" y="299"/>
      <point x="317" y="350"/>
      <point x="226" y="350" type="curve" smooth="yes"/>
      <point x="153" y="350" type="line"/>
      <point x="153" y="70" type="line"/>
      <point x="228" y="70" type="line" smooth="yes"/>
      <point x="308" y="70"/>
      <point x="359" y="114"/>
    </contour>
  </outline>
</glyph>
<glyph name="C" format="1">
  <advance width="465"/>
  <unicode hex="0043"/>
  <outline>
    <contour>
      <point x="441" y="217" type="line"/>
      <point x="420" y="71"/>
      <point x="363" y="-12"/>
      <point x="242" y="-12" type="curve" smooth="yes"/>
      <point x="116" y="-12"/>
      <point x="35" y="104"/>
      <point x="35" y="310" type="curve" smooth="yes"/>
      <point x="35" y="409" type="line" smooth="yes"/>
      <point x="35" y="615"/>
      <point x="116" y="732"/>
      <point x="242" y="732" type="curve" smooth="yes"/>
      <point x="362" y="732"/>
      <point x="418" y="648"/>
      <point x="438" y="513" type="curve"/>
      <point x="342" y="489" type="line"/>
      <point x="328" y="601"/>
      <point x="301" y="654"/>
      <point x="242" y="654" type="curve" smooth="yes"/>
      <point x="170" y="654"/>
      <point x="138" y="558"/>
      <point x="138" y="421" type="curve" smooth="yes"/>
      <point x="138" y="300" type="line" smooth="yes"/>
      <point x="138" y="160"/>
      <point x="173" y="66"/>
      <point x="245" y="66" type="curve" smooth="yes"/>
      <point x="303" y="66"/>
      <point x="331" y="119"/>
      <point x="348" y="239" type="curve"/>
    </contour>
  </outline>
</glyph>
<glyph name="D" format="1">
  <advance width="493"/>
  <unicode hex="0044"/>
  <outline>
    <contour>
      <point x="459" y="315" type="line" smooth="yes"/>
      <point x="459" y="110"/>
      <point x="366" y="0"/>
      <point x="213" y="0" type="curve" smooth="yes"/>
      <point x="54" y="0" type="line"/>
      <point x="54" y="720" type="line"/>
      <point x="215" y="720" type="line" smooth="yes"/>
      <point x="368" y="720"/>
      <point x="459" y="610"/>
      <point x="459" y="406" type="curve" smooth="yes"/>
    </contour>
    <contour>
      <point x="356" y="293" type="curve" smooth="yes"/>
      <point x="356" y="426" type="line" smooth="yes"/>
      <point x="356" y="567"/>
      <point x="305" y="644"/>
      <point x="208" y="644" type="curve" smooth="yes"/>
      <point x="156" y="644" type="line"/>
      <point x="156" y="76" type="line"/>
      <point x="210" y="76" type="line" smooth="yes"/>
      <point x="304" y="76"/>
      <point x="356" y="153"/>
    </contour>
  </outline>
</glyph>
<glyph name="F" format="1">
  <advance width="404"/>
  <unicode hex="0046"/>
  <outline>
    <contour>
      <point x="389" y="638" type="line"/>
      <point x="155" y="638" type="line"/>
      <point x="155" y="396" type="line"/>
      <point x="338" y="396" type="line"/>
      <point x="338" y="316" type="line"/>
      <point x="155" y="316" type="line"/>
      <point x="155" y="0" type="line"/>
      <point x="54" y="0" type="line"/>
      <point x="54" y="720" type="line"/>
      <point x="389" y="720" type="line"/>
    </contour>
  </outline>
</glyph>
<glyph name="G" format="1">
  <advance width="496"/>
  <unicode hex="0047"/>
  <outline>
    <contour>
      <point x="457" y="0" type="line"/>
      <point x="417" y="0" type="line"/>
      <point x="406" y="180" type="line"/>
      <point x="403" y="180" type="line"/>
      <point x="378" y="63"/>
      <point x="331" y="-12"/>
      <point x="233" y="-12" type="curve" smooth="yes"/>
      <point x="112" y="-12"/>
      <point x="35" y="108"/>
      <point x="35" y="311" type="curve" smooth="yes"/>
      <point x="35" y="409" type="line" smooth="yes"/>
      <point x="35" y="615"/>
      <point x="120" y="732"/>
      <point x="245" y="732" type="curve" smooth="yes"/>
      <point x="367" y="732"/>
      <point x="420" y="651"/>
      <point x="442" y="524" type="curve"/>
      <point x="347" y="498" type="line"/>
      <point x="332" y="601"/>
      <point x="304" y="654"/>
      <point x="245" y="654" type="curve" smooth="yes"/>
      <point x="172" y="654"/>
      <point x="138" y="558"/>
      <point x="138" y="421" type="curve" smooth="yes"/>
      <point x="138" y="302" type="line" smooth="yes"/>
      <point x="138" y="158"/>
      <point x="175" y="66"/>
      <point x="246" y="66" type="curve" smooth="yes"/>
      <point x="315" y="66"/>
      <point x="346" y="140"/>
      <point x="354" y="290" type="curve"/>
      <point x="254" y="290" type="line"/>
      <point x="254" y="334" type="line"/>
      <point x="457" y="334" type="line"/>
    </contour>
  </outline>
</glyph>
<glyph name="H" format="1">
  <advance width="502"/>
  <unicode hex="0048"/>
  <outline>
    <contour>
      <point x="449" y="0" type="line"/>
      <point x="346" y="0" type="line"/>
      <point x="346" y="333" type="line"/>
      <point x="156" y="333" type="line"/>
      <point x="156" y="0" type="line"/>
      <point x="54" y="0" type="line"/>
      <point x="54" y="720" type="line"/>
      <point x="156" y="720" type="line"/>
      <point x="156" y="416" type="line"/>
      <point x="346" y="416" type="line"/>
      <point x="346" y="720" type="line"/>
      <point x="449" y="720" type="line"/>
    </contour>
  </outline>
</glyph>
<glyph name="L" format="1">
  <advance width="397"/>
  <unicode hex="004C"/>
  <outline>
    <contour>
      <point x="387" y="0" type="line"/>
      <point x="54" y="0" type="line"/>
      <point x="54" y="720" type="line"/>
      <point x="156" y="720" type="line"/>
      <point x="156" y="83" type="line"/>
      <point x="387" y="83" type="line"/>
    </contour>
  </outline>
</glyph>
<glyph name="O" format="1">
  <advance width="497"/>
  <unicode hex="004F"/>
  <outline>
    <contour>
      <point x="463" y="311" type="line" smooth="yes"/>
      <point x="463" y="105"/>
      <point x="380" y="-12"/>
      <point x="249" y="-12" type="curve" smooth="yes"/>
      <point x="117" y="-12"/>
      <point x="35" y="104"/>
      <point x="35" y="310" type="curve" smooth="yes"/>
      <point x="35" y="409" type="line" smooth="yes"/>
      <point x="35" y="615"/>
      <point x="117" y="732"/>
      <point x="249" y="732" type="curve" smooth="yes"/>
      <point x="380" y="732"/>
      <point x="463" y="616"/>
      <point x="463" y="410" type="curve" smooth="yes"/>
    </contour>
    <contour>
      <point x="360" y="288" type="curve" smooth="yes"/>
      <point x="360" y="431" type="line" smooth="yes"/>
      <point x="360" y="560"/>
      <point x="326" y="656"/>
      <point x="249" y="656" type="curve" smooth="yes"/>
      <point x="172" y="656"/>
      <point x="138" y="562"/>
      <point x="138" y="432" type="curve" smooth="yes"/>
      <point x="138" y="289" type="line" smooth="yes"/>
      <point x="138" y="159"/>
      <point x="172" y="64"/>
      <point x="249" y="64" type="curve" smooth="yes"/>
      <point x="326" y="64"/>
      <point x="360" y="158"/>
    </contour>
  </outline>
</glyph>
<glyph name="P" format="1">
  <advance width="455"/>
  <unicode hex="0050"/>
  <outline>
    <contour>
      <point x="433" y="508" type="curve" smooth="yes"/>
      <point x="433" y="364"/>
      <point x="351" y="287"/>
      <point x="208" y="287" type="curve" smooth="yes"/>
      <point x="155" y="287" type="line"/>
      <point x="155" y="0" type="line"/>
      <point x="54" y="0" type="line"/>
      <point x="54" y="720" type="line"/>
      <point x="209" y="720" type="line" smooth="yes"/>
      <point x="350" y="720"/>
      <point x="433" y="648"/>
    </contour>
    <contour>
      <point x="335" y="505" type="curve" smooth="yes"/>
      <point x="335" y="595"/>
      <point x="294" y="644"/>
      <point x="212" y="644" type="curve" smooth="yes"/>
      <point x="154" y="644" type="line"/>
      <point x="154" y="364" type="line"/>
      <point x="214" y="364" type="line" smooth="yes"/>
      <point x="295" y="364"/>
      <point x="335" y="413"/>
    </contour>
  </outline>
</glyph>
<glyph name="R" format="1">
  <advance width="479"/>
  <unicode hex="0052"/>
  <outline>
    <contour>
      <point x="458" y="0" type="line"/>
      <point x="352" y="0" type="line"/>
      <point x="222" y="298" type="line"/>
      <point x="154" y="298" type="line"/>
      <point x="154" y="0" type="line"/>
      <point x="54" y="0" type="line"/>
      <point x="54" y="720" type="line"/>
      <point x="221" y="720" type="line" smooth="yes"/>
      <point x="359" y="720"/>
      <point x="441" y="652"/>
      <point x="441" y="514" type="curve" smooth="yes"/>
      <point x="441" y="409"/>
      <point x="388" y="348"/>
      <point x="311" y="328" type="curve"/>
    </contour>
    <contour>
      <point x="342" y="507" type="curve" smooth="yes"/>
      <point x="342" y="597"/>
      <point x="301" y="644"/>
      <point x="219" y="644" type="curve" smooth="yes"/>
      <point x="154" y="644" type="line"/>
      <point x="154" y="369" type="line"/>
      <point x="221" y="369" type="line" smooth="yes"/>
      <point x="300" y="369"/>
      <point x="342" y="415"/>
    </contour>
  </outline>
</glyph>
<glyph name="S" format="1">
  <advance width="459"/>
  <unicode hex="0053"/>
  <outline>
    <contour>
      <point x="430" y="189" type="curve" smooth="yes"/>
      <point x="430" y="60"/>
      <point x="345" y="-11"/>
      <point x="236" y="-11" type="curve" smooth="yes"/>
      <point x="132" y="-11"/>
      <point x="70" y="39"/>
      <point x="28" y="144" type="curve"/>
      <point x="98" y="197" type="line"/>
      <point x="131" y="108"/>
      <point x="176" y="70"/>
      <point x="239" y="70" type="curve" smooth="yes"/>
      <point x="295" y="70"/>
      <point x="336" y="111"/>
      <point x="336" y="180" type="curve" smooth="yes"/>
      <point x="336" y="245"/>
      <point x="305" y="283"/>
      <point x="210" y="324" type="curve" smooth="yes"/>
      <point x="89" y="375"/>
      <point x="43" y="433"/>
      <point x="43" y="544" type="curve" smooth="yes"/>
      <point x="43" y="646"/>
      <point x="112" y="731"/>
      <point x="223" y="731" type="curve" smooth="yes"/>
      <point x="319" y="731"/>
      <point x="376" y="685"/>
      <point x="415" y="596" type="curve"/>
      <point x="345" y="543" type="line"/>
      <point x="312" y="616"/>
      <point x="277" y="650"/>
      <point x="221" y="650" type="curve" smooth="yes"/>
      <point x="165" y="650"/>
      <point x="136" y="602"/>
      <point x="136" y="553" type="curve" smooth="yes"/>
      <point x="136" y="492"/>
      <point x="162" y="457"/>
      <point x="258" y="416" type="curve" smooth="yes"/>
      <point x="387" y="362"/>
      <point x="430" y="300"/>
    </contour>
  </outline>
</glyph>
<glyph name="T" format="1">
  <advance width="461"/>
  <unicode hex="0054"/>
  <outline>
    <contour>
      <point x="445" y="638" type="line"/>
      <point x="281" y="638" type="line"/>
      <point x="281" y="0" type="line"/>
      <point x="180" y="0" type="line"/>
      <point x="180" y="638" type="line"/>
      <point x="16" y="638" type="line"/>
      <point x="16" y="720" type="line"/>
      <point x="445" y="720" type="line"/>
    </contour>
  </outline>
</glyph>
<glyph name="U" format="1">
  <advance width="496"/>
  <unicode hex="0055"/>
  <outline>
    <contour>
      <point x="446" y="225" type="line" smooth="yes"/>
      <point x="446" y="57"/>
      <point x="368" y="-12"/>
      <point x="248" y="-12" type="curve" smooth="yes"/>
      <point x="128" y="-12"/>
      <point x="50" y="58"/>
      <point x="50" y="226" type="curve" smooth="yes"/>
      <point x="50" y="720" type="line"/>
      <point x="153" y="720" type="line"/>
      <point x="153" y="215" type="line" smooth="yes"/>
      <point x="153" y="112"/>
      <point x="191" y="66"/>
      <point x="251" y="66" type="curve" smooth="yes"/>
      <point x="311" y="66"/>
      <point x="349" y="110"/>
      <point x="349" y="213" type="curve" smooth="yes"/>
      <point x="349" y="720" type="line"/>
      <point x="446" y="720" type="line"/>
    </contour>
  </outline>
</glyph>
<glyph name="V" format="1">
  <advance width="498"/>
  <unicode hex="0056"/>
  <outline>
    <contour>
      <point x="488" y="720" type="line"/>
      <point x="312" y="-6" type="line"/>
      <point x="190" y="-6" type="line"/>
      <point x="16" y="720" type="line"/>
      <point x="123" y="720" type="line"/>
      <point x="251" y="127" type="line"/>
      <point x="256" y="127" type="line"/>
      <point x="385" y="720" type="line"/>
    </contour>
  </outline>
</glyph>
<glyph name="W" format="1">
  <advance width="767"/>
  <unicode hex="0057"/>
  <outline>
    <contour>
      <point x="749" y="720" type="line"/>
      <point x="617" y="-5" type="line"/>
      <point x="490" y="-5" type="line"/>
      <point x="386" y="589" type="line"/>
      <point x="380" y="589" type="line"/>
      <point x="277" y="-5" type="line"/>
      <point x="150" y="-5" type="line"/>
      <point x="18" y="720" type="line"/>
      <point x="120" y="720" type="line"/>
      <point x="216" y="122" type="line"/>
      <point x="221" y="122" type="line"/>
      <point x="319" y="720" type="line"/>
      <point x="450" y="720" type="line"/>
      <point x="549" y="122" type="line"/>
      <point x="554" y="122" type="line"/>
      <point x="650" y="720" type="line"/>
    </contour>
  </outline>
</glyph>
<glyph name="X" format="1">
  <advance width="504"/>
  <unicode hex="0058"/>
  <outline>
    <contour>
      <point x="486" y="0" type="line"/>
      <point x="373" y="0" type="line"/>
      <point x="247" y="286" type="line"/>
      <point x="116" y="0" type="line"/>
      <point x="18" y="0" type="line"/>
      <point x="192" y="369" type="line"/>
      <point x="29" y="720" type="line"/>
      <point x="142" y="720" type="line"/>
      <point x="258" y="456" type="line"/>
      <point x="377" y="720" type="line"/>
      <point x="475" y="720" type="line"/>
      <point x="312" y="373" type="line"/>
    </contour>
  </outline>
</glyph>
<glyph name="Y" format="1">
  <advance width="494"/>
  <unicode hex="0059"/>
  <outline>
    <contour>
      <point x="484" y="720" type="line"/>
      <point x="298" y="283" type="line"/>
      <point x="298" y="0" type="line"/>
      <point x="196" y="0" type="line"/>
      <point x="196" y="281" type="line"/>
      <point x="9" y="720" type="line"/>
      <point x="119" y="720" type="line"/>
      <point x="253" y="380" type="line"/>
      <point x="386" y="720" type="line"/>
    </contour>
  </outline>
</glyph>
<glyph name="Z" format="1">
  <advance width="438"/>
  <unicode hex="005A"/>
  <outline>
    <contour>
      <point x="414" y="0" type="line"/>
      <point x="23" y="0" type="line"/>
      <point x="23" y="71" type="line"/>
      <point x="301" y="638" type="line"/>
      <point x="37" y="638" type="line"/>
      <point x="37" y="720" type="line"/>
      <point x="414" y="720" type="line"/>
      <point x="414" y="649" type="line"/>
      <point x="137" y="82" type="line"/>
      <point x="414" y="82" type="line"/>
    </contour>
  </outline>
</glyph>
<glyph name="bracketleft" format="1">
  <advance width="294"/>
  <unicode hex="005B"/>
  <outline>
    <contour>
      <point x="275" y="-80" type="line"/>
      <point x="57" y="-89" type="line"/>
      <point x="57" y="729" type="line"/>
      <point x="275" y="720" type="line"/>
      <point x="275" y="673" type="line"/>
      <point x="141" y="679" type="line"/>
      <point x="141" y="-39" type="line"/>
      <point x="275" y="-33" type="line"/>
    </contour>
  </outline>
</glyph>
<glyph name="bracketright" format="1">
  <advance width="294"/>
  <unicode hex="005D"/>
  <outline>
    <contour>
      <point x="236" y="-89" type="line"/>
      <point x="19" y="-80" type="line"/>
      <point x="19" y="-33" type="line"/>
      <point x="153" y="-39" type="line"/>
      <point x="153" y="679" type="line"/>
      <point x="19" y="673" type="line"/>
      <point x="19" y="720" type="line"/>
      <point x="236" y="729" type="line"/>
    </contour>
  </outline>
</glyph>
<glyph name="asciicircum" format="1">
  <advance width="411"/>
  <unicode hex="005E"/>
  <outline>
    <contour>
      <point x="381" y="446" type="line"/>
      <point x="319" y="446" type="line"/>
      <point x="206" y="629" type="line"/>
      <point x="93" y="446" type="line"/>
      <point x="30" y="446" type="line"/>
      <point x="163" y="724" type="line"/>
      <point x="249" y="724" type="line"/>
    </contour>
  </outline>
</glyph>
<glyph name="underscore" format="1">
  <advance width="399"/>
  <unicode hex="005F"/>
  <outline>
    <contour>
      <point x="402" y="-93" type="line"/>
      <point x="-3" y="-93" type="line"/>
      <point x="-3" y="-46" type="line"/>
      <point x="402" y="-46" type="line"/>
    </contour>
  </outline>
</glyph>
<glyph name="grave" format="1">
  <advance width="394"/>
  <unicode hex="0060"/>
  <outline>
    <contour>
      <point x="276" y="579" type="line"/>
      <point x="212" y="579" type="line"/>
      <point x="98" y="705" type="line"/>
      <point x="208" y="705" type="line"/>
    </contour>
  </outline>
</glyph>
<glyph name="c" format="1">
  <advance width="374"/>
  <unicode hex="0063"/>
  <outline>
    <contour>
      <point x="354" y="145" type="line"/>
      <point x="337" y="50"/>
      <point x="288" y="-10"/>
      <point x="198" y="-10" type="curve" smooth="yes"/>
      <point x="93" y="-10"/>
      <point x="28" y="85"/>
      <point x="28" y="234" type="curve" smooth="yes"/>
      <point x="28" y="289" type="line" smooth="yes"/>
      <point x="28" y="437"/>
      <point x="97" y="534"/>
      <point x="199" y="534" type="curve" smooth="yes"/>
      <point x="293" y="534"/>
      <point x="338" y="467"/>
      <point x="353" y="377" type="curve"/>
      <point x="271" y="359" type="line"/>
      <point x="259" y="430"/>
      <point x="240" y="466"/>
      <point x="200" y="466" type="curve" smooth="yes"/>
      <point x="153" y="466"/>
      <point x="124" y="404"/>
      <point x="124" y="296" type="curve" smooth="yes"/>
      <point x="124" y="229" type="line" smooth="yes"/>
      <point x="124" y="121"/>
      <point x="154" y="58"/>
      <point x="203" y="58" type="curve" smooth="yes"/>
      <point x="239" y="58"/>
      <point x="264" y="92"/>
      <point x="276" y="163" type="curve"/>
    </contour>
  </outline>
</glyph>
<glyph name="d" format="1">
  <advance width="427"/>
  <unicode hex="0064"/>
  <outline>
    <contour>
      <point x="382" y="13" type="line"/>
      <point x="285" y="-9" type="line"/>
      <point x="285" y="94" type="line"/>
      <point x="281" y="94" type="line"/>
      <point x="250" y="35"/>
      <point x="215" y="-9"/>
      <point x="161" y="-9" type="curve" smooth="yes"/>
      <point x="88" y="-9"/>
      <point x="28" y="74"/>
      <point x="28" y="245" type="curve" smooth="yes"/>
      <point x="28" y="279" type="line" smooth="yes"/>
      <point x="28" y="449"/>
      <point x="91" y="533"/>
      <point x="163" y="533" type="curve" smooth="yes"/>
      <point x="214" y="533"/>
      <point x="252" y="490"/>
      <point x="281" y="435" type="curve"/>
      <point x="285" y="435" type="line"/>
      <point x="285" y="737" type="line"/>
      <point x="382" y="759" type="line"/>
    </contour>
    <contour>
      <point x="290" y="262" type="curve" smooth="yes"/>
      <point x="290" y="382"/>
      <point x="251" y="464"/>
      <point x="200" y="464" type="curve" smooth="yes"/>
      <point x="156" y="464"/>
      <point x="124" y="402"/>
      <point x="124" y="263" type="curve" smooth="yes"/>
      <point x="124" y="119"/>
      <point x="157" y="61"/>
      <point x="202" y="61" type="curve" smooth="yes"/>
      <point x="250" y="61"/>
      <point x="290" y="142"/>
    </contour>
  </outline>
</glyph>
<glyph name="e" format="1">
  <advance width="394"/>
  <unicode hex="0065"/>
  <outline>
    <contour>
      <point x="367" y="240" type="line"/>
      <point x="120" y="240" type="line"/>
      <point x="120" y="226" type="line" smooth="yes"/>
      <point x="120" y="118"/>
      <point x="160" y="65"/>
      <point x="227" y="65" type="curve" smooth="yes"/>
      <point x="266" y="65"/>
      <point x="306" y="83"/>
      <point x="342" y="114" type="curve"/>
      <point x="368" y="51" type="line"/>
      <point x="324" y="15"/>
      <point x="275" y="-9"/>
      <point x="211" y="-9" type="curve" smooth="yes"/>
      <point x="99" y="-9"/>
      <point x="28" y="77"/>
      <point x="28" y="234" type="curve" smooth="yes"/>
      <point x="28" y="289" type="line" smooth="yes"/>
      <point x="28" y="439"/>
      <point x="95" y="534"/>
      <point x="201" y="534" type="curve" smooth="yes"/>
      <point x="307" y="534"/>
      <point x="367" y="431"/>
      <point x="367" y="268" type="curve" smooth="yes"/>
    </contour>
    <contour>
      <point x="278" y="287" type="line"/>
      <point x="276" y="406"/>
      <point x="248" y="471"/>
      <point x="201" y="471" type="curve" smooth="yes"/>
      <point x="149" y="471"/>
      <point x="120" y="408"/>
      <point x="120" y="289" type="curve" smooth="yes"/>
      <point x="120" y="287" type="line"/>
    </contour>
  </outline>
</glyph>
<glyph name="g" format="1">
  <advance width="427"/>
  <unicode hex="0067"/>
  <outline>
    <contour>
      <point x="382" y="8" type="line" smooth="yes"/>
      <point x="382" y="-136"/>
      <point x="312" y="-190"/>
      <point x="193" y="-190" type="curve" smooth="yes"/>
      <point x="134" y="-190"/>
      <point x="95" y="-179"/>
      <point x="64" y="-167" type="curve"/>
      <point x="64" y="-94" type="line"/>
      <point x="88" y="-94" type="line"/>
      <point x="104" y="-122"/>
      <point x="132" y="-138"/>
      <point x="184" y="-138" type="curve" smooth="yes"/>
      <point x="245" y="-138"/>
      <point x="285" y="-103"/>
      <point x="285" y="-6" type="curve" smooth="yes"/>
      <point x="285" y="94" type="line"/>
      <point x="281" y="94" type="line"/>
      <point x="250" y="35"/>
      <point x="215" y="-9"/>
      <point x="161" y="-9" type="curve" smooth="yes"/>
      <point x="88" y="-9"/>
      <point x="28" y="74"/>
      <point x="28" y="245" type="curve" smooth="yes"/>
      <point x="28" y="279" type="line" smooth="yes"/>
      <point x="28" y="449"/>
      <point x="91" y="533"/>
      <point x="163" y="533" type="curve" smooth="yes"/>
      <point x="214" y="533"/>
      <point x="252" y="490"/>
      <point x="281" y="435" type="curve"/>
      <point x="285" y="435" type="line"/>
      <point x="285" y="533" type="line"/>
      <point x="382" y="511" type="line"/>
    </contour>
    <contour>
      <point x="290" y="262" type="curve" smooth="yes"/>
      <point x="290" y="382"/>
      <point x="251" y="464"/>
      <point x="200" y="464" type="curve" smooth="yes"/>
      <point x="156" y="464"/>
      <point x="124" y="402"/>
      <point x="124" y="263" type="curve" smooth="yes"/>
      <point x="124" y="119"/>
      <point x="157" y="61"/>
      <point x="202" y="61" type="curve" smooth="yes"/>
      <point x="250" y="61"/>
      <point x="290" y="142"/>
    </contour>
  </outline>
</glyph>
<glyph name="i" format="1">
  <advance width="197"/>
  <unicode hex="0069"/>
  <outline>
    <contour>
      <point x="150" y="626" type="line"/>
      <point x="47" y="626" type="line"/>
      <point x="47" y="720" type="line"/>
      <point x="150" y="720" type="line"/>
    </contour>
    <contour>
      <point x="147" y="0" type="line"/>
      <point x="50" y="0" type="line"/>
      <point x="50" y="524" type="line"/>
      <point x="147" y="524" type="line"/>
    </contour>
  </outline>
</glyph>
<glyph name="j" format="1">
  <advance width="198"/>
  <unicode hex="006A"/>
  <outline>
    <contour>
      <point x="151" y="626" type="line"/>
      <point x="48" y="626" type="line"/>
      <point x="48" y="720" type="line"/>
      <point x="151" y="720" type="line"/>
    </contour>
    <contour>
      <point x="148" y="-61" type="line" smooth="yes"/>
      <point x="148" y="-154"/>
      <point x="105" y="-190"/>
      <point x="29" y="-190" type="curve" smooth="yes"/>
      <point x="1" y="-190"/>
      <point x="-16" y="-187"/>
      <point x="-36" y="-181" type="curve"/>
      <point x="-36" y="-118" type="line"/>
      <point x="-23" y="-124"/>
      <point x="-11" y="-127"/>
      <point x="7" y="-127" type="curve" smooth="yes"/>
      <point x="33" y="-127"/>
      <point x="51" y="-110"/>
      <point x="51" y="-70" type="curve" smooth="yes"/>
      <point x="51" y="524" type="line"/>
      <point x="148" y="524" type="line"/>
    </contour>
  </outline>
</glyph>
<glyph name="k" format="1">
  <advance width="405"/>
  <unicode hex="006B"/>
  <outline>
    <contour>
      <point x="403" y="0" type="line"/>
      <point x="298" y="0" type="line"/>
      <point x="154" y="263" type="line"/>
      <point x="154" y="266" type="line"/>
      <point x="295" y="524" type="line"/>
      <point x="397" y="524" type="line"/>
      <point x="250" y="268" type="line"/>
    </contour>
    <contour>
      <point x="142" y="0" type="line"/>
      <point x="45" y="0" type="line"/>
      <point x="45" y="737" type="line"/>
      <point x="142" y="759" type="line"/>
    </contour>
  </outline>
</glyph>
<glyph name="m" format="1">
  <advance width="635"/>
  <unicode hex="006D"/>
  <outline>
    <contour>
      <point x="592" y="0" type="line"/>
      <point x="496" y="0" type="line"/>
      <point x="496" y="395" type="line" smooth="yes"/>
      <point x="496" y="435"/>
      <point x="484" y="455"/>
      <point x="454" y="455" type="curve" smooth="yes"/>
      <point x="426" y="455"/>
      <point x="395" y="431"/>
      <point x="367" y="378" type="curve"/>
      <point x="367" y="0" type="line"/>
      <point x="271" y="0" type="line"/>
      <point x="271" y="395" type="line" smooth="yes"/>
      <point x="271" y="435"/>
      <point x="258" y="455"/>
      <point x="229" y="455" type="curve" smooth="yes"/>
      <point x="200" y="455"/>
      <point x="170" y="431"/>
      <point x="141" y="378" type="curve"/>
      <point x="141" y="0" type="line"/>
      <point x="45" y="0" type="line"/>
      <point x="45" y="511" type="line"/>
      <point x="141" y="533" type="line"/>
      <point x="141" y="426" type="line"/>
      <point x="144" y="426" type="line"/>
      <point x="188" y="493"/>
      <point x="225" y="530"/>
      <point x="279" y="530" type="curve" smooth="yes"/>
      <point x="335" y="530"/>
      <point x="366" y="491"/>
      <point x="366" y="431" type="curve" smooth="yes"/>
      <point x="366" y="426" type="line"/>
      <point x="370" y="426" type="line"/>
      <point x="414" y="493"/>
      <point x="451" y="530"/>
      <point x="505" y="530" type="curve" smooth="yes"/>
      <point x="563" y="530"/>
      <point x="592" y="487"/>
      <point x="592" y="417" type="curve" smooth="yes"/>
    </contour>
  </outline>
</glyph>
<glyph name="v" format="1">
  <advance width="394"/>
  <unicode hex="0076"/>
  <outline>
    <contour>
      <point x="380" y="524" type="line"/>
      <point x="254" y="-5" type="line"/>
      <point x="140" y="-5" type="line"/>
      <point x="14" y="524" type="line"/>
      <point x="112" y="524" type="line"/>
      <point x="200" y="95" type="line"/>
      <point x="288" y="524" type="line"/>
    </contour>
  </outline>
</glyph>
<glyph name="x" format="1">
  <advance width="407"/>
  <unicode hex="0078"/>
  <outline>
    <contour>
      <point x="391" y="0" type="line"/>
      <point x="287" y="0" type="line"/>
      <point x="198" y="189" type="line"/>
      <point x="107" y="0" type="line"/>
      <point x="16" y="0" type="line"/>
      <point x="150" y="264" type="line"/>
      <point x="21" y="524" type="line"/>
      <point x="125" y="524" type="line"/>
      <point x="209" y="344" type="line"/>
      <point x="296" y="524" type="line"/>
      <point x="387" y="524" type="line"/>
      <point x="257" y="269" type="line"/>
    </contour>
  </outline>
</glyph>
<glyph name="y" format="1">
  <advance width="398"/>
  <unicode hex="0079"/>
  <outline>
    <contour>
      <point x="380" y="524" type="line"/>
      <point x="239" y="-50" type="line" smooth="yes"/>
      <point x="213" y="-154"/>
      <point x="174" y="-190"/>
      <point x="99" y="-190" type="curve" smooth="yes"/>
      <point x="60" y="-190"/>
      <point x="38" y="-183"/>
      <point x="16" y="-173" type="curve"/>
      <point x="16" y="-103" type="line"/>
      <point x="40" y="-103" type="line"/>
      <point x="50" y="-125"/>
      <point x="62" y="-137"/>
      <point x="90" y="-137" type="curve" smooth="yes"/>
      <point x="116" y="-137"/>
      <point x="134" y="-120"/>
      <point x="143" y="-87" type="curve" smooth="yes"/>
      <point x="156" y="-41" type="line"/>
      <point x="14" y="524" type="line"/>
      <point x="112" y="524" type="line"/>
      <point x="200" y="85" type="line"/>
      <point x="288" y="524" type="line"/>
    </contour>
  </outline>
</glyph>
<glyph name="braceleft" format="1">
  <advance width="329"/>
  <unicode hex="007B"/>
  <outline>
    <contour>
      <point x="305" y="-80" type="line"/>
      <point x="222" y="-80" type="line" smooth="yes"/>
      <point x="144" y="-80"/>
      <point x="104" y="-39"/>
      <point x="104" y="45" type="curve" smooth="yes"/>
      <point x="104" y="90"/>
      <point x="119" y="154"/>
      <point x="119" y="197" type="curve" smooth="yes"/>
      <point x="119" y="268"/>
      <point x="74" y="296"/>
      <point x="15" y="296" type="curve"/>
      <point x="15" y="344" type="line"/>
      <point x="74" y="344"/>
      <point x="119" y="372"/>
      <point x="119" y="443" type="curve" smooth="yes"/>
      <point x="119" y="486"/>
      <point x="104" y="550"/>
      <point x="104" y="595" type="curve" smooth="yes"/>
      <point x="104" y="679"/>
      <point x="144" y="720"/>
      <point x="222" y="720" type="curve" smooth="yes"/>
      <point x="305" y="720" type="line"/>
      <point x="305" y="673" type="line"/>
      <point x="256" y="673" type="line" smooth="yes"/>
      <point x="210" y="673"/>
      <point x="188" y="647"/>
      <point x="188" y="595" type="curve" smooth="yes"/>
      <point x="188" y="556"/>
      <point x="204" y="496"/>
      <point x="204" y="447" type="curve" smooth="yes"/>
      <point x="204" y="370"/>
      <point x="163" y="343"/>
      <point x="118" y="324" type="curve"/>
      <point x="118" y="316" type="line"/>
      <point x="163" y="297"/>
      <point x="204" y="270"/>
      <point x="204" y="193" type="curve" smooth="yes"/>
      <point x="204" y="144"/>
      <point x="188" y="84"/>
      <point x="188" y="45" type="curve" smooth="yes"/>
      <point x="188" y="-7"/>
      <point x="210" y="-33"/>
      <point x="256" y="-33" type="curve" smooth="yes"/>
      <point x="305" y="-33" type="line"/>
    </contour>
  </outline>
</glyph>
<glyph name="bar" format="1">
  <advance width="206"/>
  <unicode hex="007C"/>
  <outline>
    <contour>
      <point x="141" y="-188" type="line"/>
      <point x="65" y="-188" type="line"/>
      <point x="65" y="762" type="line"/>
      <point x="141" y="762" type="line"/>
    </contour>
  </outline>
</glyph>
<glyph name="asciitilde" format="1">
  <advance width="308"/>
  <unicode hex="007E"/>
  <outline>
    <contour>
      <point x="283" y="342" type="line"/>
      <point x="286" y="262"/>
      <point x="263" y="226"/>
      <point x="215" y="226" type="curve" smooth="yes"/>
      <point x="167" y="226"/>
      <point x="128" y="272"/>
      <point x="98" y="272" type="curve" smooth="yes"/>
      <point x="77" y="272"/>
      <point x="68" y="258"/>
      <point x="68" y="228" type="curve"/>
      <point x="24" y="228" type="line"/>
      <point x="22" y="307"/>
      <point x="44" y="344"/>
      <point x="93" y="344" type="curve" smooth="yes"/>
      <point x="141" y="344"/>
      <point x="180" y="298"/>
      <point x="210" y="298" type="curve" smooth="yes"/>
      <point x="231" y="298"/>
      <point x="240" y="311"/>
      <point x="240" y="342" type="curve"/>
    </contour>
  </outline>
</glyph>
<glyph name="cent" format="1">
  <advance width="378"/>
  <unicode hex="00A2"/>
  <outline>
    <contour>
      <point x="354" y="145" type="line"/>
      <point x="337" y="50"/>
      <point x="288" y="-10"/>
      <point x="198" y="-10" type="curve" smooth="yes"/>
      <point x="175" y="-10"/>
      <point x="154" y="-6"/>
      <point x="134" y="3" type="curve"/>
      <point x="99" y="-95" type="line"/>
      <point x="53" y="-95" type="line"/>
      <point x="99" y="27" type="line"/>
      <point x="54" y="67"/>
      <point x="28" y="140"/>
      <point x="28" y="234" type="curve" smooth="yes"/>
      <point x="28" y="295" type="line" smooth="yes"/>
      <point x="28" y="443"/>
      <point x="97" y="534"/>
      <point x="198" y="534" type="curve" smooth="yes"/>
      <point x="228" y="534"/>
      <point x="253" y="528"/>
      <point x="273" y="516" type="curve"/>
      <point x="310" y="619" type="line"/>
      <point x="355" y="619" type="line"/>
      <point x="165" y="71" type="line"/>
      <point x="177" y="60"/>
      <point x="190" y="56"/>
      <point x="203" y="56" type="curve" smooth="yes"/>
      <point x="240" y="56"/>
      <point x="268" y="89"/>
      <point x="281" y="163" type="curve"/>
    </contour>
    <contour>
      <point x="247" y="448" type="line"/>
      <point x="235" y="462"/>
      <point x="218" y="469"/>
      <point x="199" y="469" type="curve" smooth="yes"/>
      <point x="154" y="469"/>
      <point x="118" y="413"/>
      <point x="118" y="301" type="curve" smooth="yes"/>
      <point x="118" y="233" type="line" smooth="yes"/>
      <point x="118" y="177"/>
      <point x="124" y="134"/>
      <point x="138" y="108" type="curve"/>
    </contour>
  </outline>
</glyph>
<glyph name="sterling" format="1">
  <advance width="467"/>
  <unicode hex="00A3"/>
  <outline>
    <contour>
      <point x="451" y="177" type="line"/>
      <point x="428" y="48"/>
      <point x="382" y="-6"/>
      <point x="309" y="-6" type="curve" smooth="yes"/>
      <point x="263" y="-6"/>
      <point x="216" y="19"/>
      <point x="167" y="59" type="curve"/>
      <point x="134" y="26"/>
      <point x="89" y="4"/>
      <point x="33" y="-6" type="curve"/>
      <point x="33" y="70" type="line"/>
      <point x="96" y="86"/>
      <point x="133" y="129"/>
      <point x="133" y="221" type="curve" smooth="yes"/>
      <point x="133" y="260"/>
      <point x="127" y="297"/>
      <point x="120" y="329" type="curve"/>
      <point x="29" y="329" type="line"/>
      <point x="29" y="386" type="line"/>
      <point x="105" y="386" type="line"/>
      <point x="92" y="435"/>
      <point x="76" y="487"/>
      <point x="76" y="545" type="curve" smooth="yes"/>
      <point x="76" y="663"/>
      <point x="142" y="732"/>
      <point x="250" y="732" type="curve" smooth="yes"/>
      <point x="352" y="732"/>
      <point x="397" y="676"/>
      <point x="431" y="593" type="curve"/>
      <point x="352" y="554" type="line"/>
      <point x="326" y="619"/>
      <point x="300" y="651"/>
      <point x="253" y="651" type="curve" smooth="yes"/>
      <point x="201" y="651"/>
      <point x="171" y="610"/>
      <point x="171" y="543" type="curve" smooth="yes"/>
      <point x="171" y="493"/>
      <point x="188" y="439"/>
      <point x="202" y="386" type="curve"/>
      <point x="350" y="386" type="line"/>
      <point x="350" y="329" type="line"/>
      <point x="216" y="329" type="line"/>
      <point x="222" y="296"/>
      <point x="227" y="260"/>
      <point x="227" y="221" type="curve" smooth="yes"/>
      <point x="227" y="182"/>
      <point x="221" y="149"/>
      <point x="209" y="121" type="curve"/>
      <point x="242" y="90"/>
      <point x="274" y="76"/>
      <point x="302" y="76" type="curve" smooth="yes"/>
      <point x="345" y="76"/>
      <point x="370" y="109"/>
      <point x="389" y="203" type="curve"/>
    </contour>
  </outline>
</glyph>
<glyph name="yen" format="1">
  <advance width="488"/>
  <unicode hex="00A5"/>
  <outline>
    <contour>
      <point x="475" y="720" type="line"/>
      <point x="337" y="390" type="line"/>
      <point x="441" y="390" type="line"/>
      <point x="441" y="334" type="line"/>
      <point x="314" y="334" type="line"/>
      <point x="293" y="283" type="line"/>
      <point x="293" y="222" type="line"/>
      <point x="441" y="222" type="line"/>
      <point x="441" y="166" type="line"/>
      <point x="293" y="166" type="line"/>
      <point x="293" y="0" type="line"/>
      <point x="195" y="0" type="line"/>
      <point x="195" y="166" type="line"/>
      <point x="48" y="166" type="line"/>
      <point x="48" y="222" type="line"/>
      <point x="195" y="222" type="line"/>
      <point x="195" y="281" type="line"/>
      <point x="172" y="334" type="line"/>
      <point x="48" y="334" type="line"/>
      <point x="48" y="390" type="line"/>
      <point x="150" y="390" type="line"/>
      <point x="12" y="720" type="line"/>
      <point x="120" y="720" type="line"/>
      <point x="250" y="374" type="line"/>
      <point x="379" y="720" type="line"/>
    </contour>
  </outline>
</glyph>
<glyph name="section" format="1">
  <advance width="457"/>
  <unicode hex="00A7"/>
  <outline>
    <contour>
      <point x="434" y="354" type="curve" smooth="yes"/>
      <point x="434" y="285"/>
      <point x="381" y="238"/>
      <point x="304" y="235" type="curve"/>
      <point x="304" y="230" type="line"/>
      <point x="352" y="210"/>
      <point x="392" y="175"/>
      <point x="392" y="111" type="curve" smooth="yes"/>
      <point x="392" y="37"/>
      <point x="336" y="-12"/>
      <point x="239" y="-12" type="curve" smooth="yes"/>
      <point x="167" y="-12"/>
      <point x="116" y="7"/>
      <point x="65" y="41" type="curve"/>
      <point x="99" y="107" type="line"/>
      <point x="145" y="76"/>
      <point x="194" y="59"/>
      <point x="240" y="59" type="curve" smooth="yes"/>
      <point x="284" y="59"/>
      <point x="310" y="80"/>
      <point x="310" y="113" type="curve" smooth="yes"/>
      <point x="310" y="149"/>
      <point x="290" y="177"/>
      <point x="199" y="208" type="curve" smooth="yes"/>
      <point x="82" y="249"/>
      <point x="24" y="289"/>
      <point x="24" y="366" type="curve" smooth="yes"/>
      <point x="24" y="435"/>
      <point x="77" y="482"/>
      <point x="153" y="485" type="curve"/>
      <point x="153" y="490" type="line"/>
      <point x="106" y="510"/>
      <point x="66" y="545"/>
      <point x="66" y="609" type="curve" smooth="yes"/>
      <point x="66" y="683"/>
      <point x="122" y="732"/>
      <point x="218" y="732" type="curve" smooth="yes"/>
      <point x="290" y="732"/>
      <point x="341" y="713"/>
      <point x="393" y="679" type="curve"/>
      <point x="359" y="613" type="line"/>
      <point x="313" y="644"/>
      <point x="264" y="661"/>
      <point x="217" y="661" type="curve" smooth="yes"/>
      <point x="173" y="661"/>
      <point x="147" y="640"/>
      <point x="147" y="607" type="curve" smooth="yes"/>
      <point x="147" y="571"/>
      <point x="167" y="543"/>
      <point x="258" y="512" type="curve" smooth="yes"/>
      <point x="375" y="471"/>
      <point x="434" y="431"/>
    </contour>
    <contour>
      <point x="354" y="338" type="curve" smooth="yes"/>
      <point x="354" y="371"/>
      <point x="334" y="402"/>
      <point x="270" y="429" type="curve" smooth="yes"/>
      <point x="241" y="441"/>
      <point x="212" y="447"/>
      <point x="179" y="447" type="curve" smooth="yes"/>
      <point x="138" y="447"/>
      <point x="104" y="425"/>
      <point x="104" y="382" type="curve" smooth="yes"/>
      <point x="104" y="349"/>
      <point x="124" y="318"/>
      <point x="187" y="291" type="curve" smooth="yes"/>
      <point x="216" y="279"/>
      <point x="246" y="273"/>
      <point x="278" y="273" type="curve" smooth="yes"/>
      <point x="319" y="273"/>
      <point x="354" y="295"/>
    </contour>
  </outline>
</glyph>
<glyph name="dieresis" format="1">
  <advance width="394"/>
  <unicode hex="00A8"/>
  <outline>
    <contour>
      <point x="312" y="579" type="line"/>
      <point x="230" y="579" type="line"/>
      <point x="230" y="673" type="line"/>
      <point x="312" y="673" type="line"/>
    </contour>
    <contour>
      <point x="164" y="579" type="line"/>
      <point x="82" y="579" type="line"/>
      <point x="82" y="673" type="line"/>
      <point x="164" y="673" type="line"/>
    </contour>
  </outline>
</glyph>
<glyph name="copyright" format="1">
  <advance width="656"/>
  <unicode hex="00A9"/>
  <outline>
    <contour>
      <point x="625" y="360" type="curve" smooth="yes"/>
      <point x="625" y="147"/>
      <point x="501" y="-12"/>
      <point x="328" y="-12" type="curve" smooth="yes"/>
      <point x="156" y="-12"/>
      <point x="32" y="146"/>
      <point x="32" y="360" type="curve" smooth="yes"/>
      <point x="32" y="574"/>
      <point x="156" y="732"/>
      <point x="329" y="732" type="curve" smooth="yes"/>
      <point x="501" y="732"/>
      <point x="625" y="574"/>
    </contour>
    <contour>
      <point x="592" y="360" type="curve" smooth="yes"/>
      <point x="592" y="554"/>
      <point x="486" y="702"/>
      <point x="328" y="702" type="curve" smooth="yes"/>
      <point x="170" y="702"/>
      <point x="65" y="555"/>
      <point x="65" y="360" type="curve" smooth="yes"/>
      <point x="65" y="166"/>
      <point x="170" y="18"/>
      <point x="329" y="18" type="curve" smooth="yes"/>
      <point x="487" y="18"/>
      <point x="592" y="165"/>
    </contour>
    <contour>
      <point x="445" y="289" type="line"/>
      <point x="431" y="200"/>
      <point x="396" y="152"/>
      <point x="325" y="152" type="curve" smooth="yes"/>
      <point x="251" y="152"/>
      <point x="202" y="218"/>
      <point x="202" y="336" type="curve" smooth="yes"/>
      <point x="202" y="393" type="line" smooth="yes"/>
      <point x="202" y="511"/>
      <point x="251" y="577"/>
      <point x="325" y="577" type="curve" smooth="yes"/>
      <point x="397" y="577"/>
      <point x="429" y="528"/>
      <point x="443" y="447" type="curve"/>
      <point x="379" y="430" type="line"/>
      <point x="370" y="495"/>
      <point x="356" y="524"/>
      <point x="325" y="524" type="curve" smooth="yes"/>
      <point x="286" y="524"/>
      <point x="271" y="472"/>
      <point x="271" y="399" type="curve" smooth="yes"/>
      <point x="271" y="331" type="line" smooth="yes"/>
      <point x="271" y="256"/>
      <point x="289" y="206"/>
      <point x="326" y="206" type="curve" smooth="yes"/>
      <point x="358" y="206"/>
      <point x="372" y="237"/>
      <point x="382" y="305" type="curve"/>
    </contour>
  </outline>
</glyph>
<glyph name="ordfeminine" format="1">
  <advance width="296"/>
  <unicode hex="00AA"/>
  <outline>
    <contour>
      <point x="274" y="416" type="line"/>
      <point x="224" y="415"/>
      <point x="197" y="431"/>
      <point x="187" y="461" type="curve"/>
      <point x="186" y="461" type="line"/>
      <point x="164" y="431"/>
      <point x="137" y="414"/>
      <point x="104" y="414" type="curve" smooth="yes"/>
      <point x="60" y="414"/>
      <point x="26" y="443"/>
      <point x="26" y="497" type="curve" smooth="yes"/>
      <point x="26" y="556"/>
      <point x="77" y="596"/>
      <point x="182" y="601" type="curve"/>
      <point x="182" y="628" type="line" smooth="yes"/>
      <point x="182" y="658"/>
      <point x="171" y="673"/>
      <point x="145" y="673" type="curve" smooth="yes"/>
      <point x="120" y="673"/>
      <point x="94" y="666"/>
      <point x="63" y="647" type="curve"/>
      <point x="44" y="690" type="line"/>
      <point x="79" y="710"/>
      <point x="117" y="725"/>
      <point x="162" y="725" type="curve" smooth="yes"/>
      <point x="223" y="725"/>
      <point x="250" y="698"/>
      <point x="250" y="633" type="curve" smooth="yes"/>
      <point x="250" y="480" type="line" smooth="yes"/>
      <point x="250" y="460"/>
      <point x="256" y="450"/>
      <point x="274" y="448" type="curve"/>
    </contour>
    <contour>
      <point x="266" y="321" type="line"/>
      <point x="31" y="321" type="line"/>
      <point x="31" y="366" type="line"/>
      <point x="266" y="366" type="line"/>
    </contour>
    <contour>
      <point x="182" y="491" type="curve"/>
      <point x="182" y="568" type="line"/>
      <point x="117" y="565"/>
      <point x="92" y="537"/>
      <point x="92" y="504" type="curve" smooth="yes"/>
      <point x="92" y="476"/>
      <point x="108" y="461"/>
      <point x="131" y="461" type="curve" smooth="yes"/>
      <point x="150" y="461"/>
      <point x="168" y="471"/>
    </contour>
  </outline>
</glyph>
<glyph name="guillemotleft" format="1">
  <advance width="385"/>
  <unicode hex="00AB"/>
  <outline>
    <contour>
      <point x="359" y="74" type="line"/>
      <point x="306" y="74" type="line"/>
      <point x="178" y="262" type="line"/>
      <point x="306" y="450" type="line"/>
      <point x="359" y="450" type="line"/>
      <point x="276" y="262" type="line"/>
    </contour>
    <contour>
      <point x="195" y="74" type="line"/>
      <point x="142" y="74" type="line"/>
      <point x="15" y="262" type="line"/>
      <point x="142" y="450" type="line"/>
      <point x="195" y="450" type="line"/>
      <point x="113" y="262" type="line"/>
    </contour>
  </outline>
</glyph>
<glyph name="degree" format="1">
  <advance width="333"/>
  <unicode hex="00B0"/>
  <outline>
    <contour>
      <point x="297" y="598" type="curve" smooth="yes"/>
      <point x="297" y="524"/>
      <point x="242" y="471"/>
      <point x="168" y="471" type="curve" smooth="yes"/>
      <point x="95" y="471"/>
      <point x="41" y="524"/>
      <point x="41" y="598" type="curve" smooth="yes"/>
      <point x="41" y="671"/>
      <point x="95" y="724"/>
      <point x="168" y="724" type="curve" smooth="yes"/>
      <point x="242" y="724"/>
      <point x="297" y="671"/>
    </contour>
    <contour>
      <point x="244" y="598" type="curve" smooth="yes"/>
      <point x="244" y="644"/>
      <point x="213" y="678"/>
      <point x="168" y="678" type="curve" smooth="yes"/>
      <point x="124" y="678"/>
      <point x="93" y="644"/>
      <point x="93" y="598" type="curve" smooth="yes"/>
      <point x="93" y="552"/>
      <point x="124" y="517"/>
      <point x="168" y="517" type="curve" smooth="yes"/>
      <point x="213" y="517"/>
      <point x="244" y="552"/>
    </contour>
  </outline>
</glyph>
<glyph name="acute" format="1">
  <advance width="394"/>
  <unicode hex="00B4"/>
  <outline>
    <contour>
      <point x="297" y="705" type="line"/>
      <point x="182" y="579" type="line"/>
      <point x="119" y="579" type="line"/>
      <point x="186" y="705" type="line"/>
    </contour>
  </outline>
</glyph>
<glyph name="periodcentered" format="1">
  <advance width="180"/>
  <unicode hex="00B7"/>
  <outline>
    <contour>
      <point x="148" y="278" type="curve" smooth="yes"/>
      <point x="148" y="245"/>
      <point x="123" y="220"/>
      <point x="90" y="220" type="curve" smooth="yes"/>
      <point x="57" y="220"/>
      <point x="32" y="245"/>
      <point x="32" y="278" type="curve" smooth="yes"/>
      <point x="32" y="311"/>
      <point x="57" y="336"/>
      <point x="90" y="336" type="curve" smooth="yes"/>
      <point x="123" y="336"/>
      <point x="148" y="311"/>
    </contour>
  </outline>
</glyph>
<glyph name="ordmasculine" format="1">
  <advance width="294"/>
  <unicode hex="00BA"/>
  <outline>
    <contour>
      <point x="266" y="560" type="line" smooth="yes"/>
      <point x="266" y="470"/>
      <point x="220" y="411"/>
      <point x="147" y="411" type="curve" smooth="yes"/>
      <point x="74" y="411"/>
      <point x="28" y="470"/>
      <point x="28" y="560" type="curve"/>
      <point x="27" y="561"/>
      <point x="27" y="577"/>
      <point x="28" y="578" type="curve"/>
      <point x="28" y="668"/>
      <point x="74" y="726"/>
      <point x="147" y="726" type="curve" smooth="yes"/>
      <point x="220" y="726"/>
      <point x="266" y="668"/>
      <point x="266" y="578" type="curve" smooth="yes"/>
    </contour>
    <contour>
      <point x="261" y="321" type="line"/>
      <point x="33" y="321" type="line"/>
      <point x="33" y="366" type="line"/>
      <point x="261" y="366" type="line"/>
    </contour>
    <contour>
      <point x="198" y="556" type="curve" smooth="yes"/>
      <point x="198" y="581" type="line" smooth="yes"/>
      <point x="198" y="642"/>
      <point x="181" y="678"/>
      <point x="147" y="678" type="curve" smooth="yes"/>
      <point x="113" y="678"/>
      <point x="96" y="643"/>
      <point x="96" y="582" type="curve"/>
      <point x="95" y="581"/>
      <point x="95" y="558"/>
      <point x="96" y="557" type="curve"/>
      <point x="96" y="496"/>
      <point x="113" y="460"/>
      <point x="147" y="460" type="curve" smooth="yes"/>
      <point x="181" y="460"/>
      <point x="198" y="494"/>
    </contour>
  </outline>
</glyph>
<glyph name="guillemotright" format="1">
  <advance width="385"/>
  <unicode hex="00BB"/>
  <outline>
    <contour>
      <point x="370" y="262" type="line"/>
      <point x="243" y="74" type="line"/>
      <point x="190" y="74" type="line"/>
      <point x="273" y="262" type="line"/>
      <point x="190" y="450" type="line"/>
      <point x="243" y="450" type="line"/>
    </contour>
    <contour>
      <point x="207" y="262" type="line"/>
      <point x="79" y="74" type="line"/>
      <point x="26" y="74" type="line"/>
      <point x="109" y="262" type="line"/>
      <point x="26" y="450" type="line"/>
      <point x="79" y="450" type="line"/>
    </contour>
  </outline>
</glyph>
<glyph name="questiondown" format="1">
  <advance width="385"/>
  <unicode hex="00BF"/>
  <outline>
    <contour>
      <point x="265" y="669" type="curve" smooth="yes"/>
      <point x="265" y="636"/>
      <point x="241" y="611"/>
      <point x="207" y="611" type="curve" smooth="yes"/>
      <point x="174" y="611"/>
      <point x="149" y="636"/>
      <point x="149" y="669" type="curve" smooth="yes"/>
      <point x="149" y="703"/>
      <point x="174" y="727"/>
      <point x="207" y="727" type="curve" smooth="yes"/>
      <point x="241" y="727"/>
      <point x="265" y="703"/>
    </contour>
    <contour>
      <point x="371" y="156" type="line"/>
      <point x="348" y="48"/>
      <point x="294" y="-12"/>
      <point x="191" y="-12" type="curve" smooth="yes"/>
      <point x="87" y="-12"/>
      <point x="28" y="58"/>
      <point x="28" y="162" type="curve" smooth="yes"/>
      <point x="28" y="251"/>
      <point x="59" y="292"/>
      <point x="118" y="357" type="curve" smooth="yes"/>
      <point x="164" y="406"/>
      <point x="178" y="437"/>
      <point x="181" y="519" type="curve"/>
      <point x="237" y="519" type="line"/>
      <point x="247" y="407"/>
      <point x="235" y="366"/>
      <point x="178" y="298" type="curve" smooth="yes"/>
      <point x="139" y="253"/>
      <point x="123" y="216"/>
      <point x="123" y="166" type="curve" smooth="yes"/>
      <point x="123" y="105"/>
      <point x="151" y="66"/>
      <point x="195" y="66" type="curve" smooth="yes"/>
      <point x="241" y="66"/>
      <point x="268" y="99"/>
      <point x="290" y="184" type="curve"/>
    </contour>
  </outline>
</glyph>
<glyph name="AE" format="1">
  <advance width="744"/>
  <unicode hex="00C6"/>
  <outline>
    <contour>
      <point x="720" y="0" type="line"/>
      <point x="370" y="0" type="line"/>
      <point x="370" y="179" type="line"/>
      <point x="180" y="179" type="line"/>
      <point x="111" y="0" type="line"/>
      <point x="9" y="0" type="line"/>
      <point x="290" y="720" type="line"/>
      <point x="711" y="720" type="line"/>
      <point x="711" y="638" type="line"/>
      <point x="471" y="638" type="line"/>
      <point x="471" y="414" type="line"/>
      <point x="660" y="414" type="line"/>
      <point x="660" y="336" type="line"/>
      <point x="471" y="336" type="line"/>
      <point x="471" y="82" type="line"/>
      <point x="720" y="82" type="line"/>
    </contour>
    <contour>
      <point x="370" y="253" type="line"/>
      <point x="370" y="639" type="line"/>
      <point x="353" y="639" type="line"/>
      <point x="204" y="253" type="line"/>
    </contour>
  </outline>
</glyph>
<glyph name="Ccedilla" format="1">
  <advance width="465"/>
  <unicode hex="00C7"/>
  <outline>
    <contour>
      <point x="441" y="217" type="line"/>
      <point x="421" y="76"/>
      <point x="367" y="-7"/>
      <point x="254" y="-12" type="curve"/>
      <point x="235" y="-43" type="line"/>
      <point x="246" y="-39"/>
      <point x="258" y="-37"/>
      <point x="273" y="-37" type="curve" smooth="yes"/>
      <point x="311" y="-37"/>
      <point x="336" y="-54"/>
      <point x="336" y="-87" type="curve" smooth="yes"/>
      <point x="336" y="-143"/>
      <point x="276" y="-170"/>
      <point x="147" y="-167" type="curve"/>
      <point x="147" y="-142" type="line"/>
      <point x="245" y="-141"/>
      <point x="278" y="-125"/>
      <point x="278" y="-100" type="curve" smooth="yes"/>
      <point x="278" y="-86"/>
      <point x="268" y="-78"/>
      <point x="249" y="-78" type="curve" smooth="yes"/>
      <point x="233" y="-78"/>
      <point x="219" y="-81"/>
      <point x="205" y="-88" type="curve"/>
      <point x="183" y="-72" type="line"/>
      <point x="221" y="-11" type="line"/>
      <point x="107" y="0"/>
      <point x="35" y="116"/>
      <point x="35" y="310" type="curve" smooth="yes"/>
      <point x="35" y="409" type="line" smooth="yes"/>
      <point x="35" y="615"/>
      <point x="116" y="732"/>
      <point x="242" y="732" type="curve" smooth="yes"/>
      <point x="362" y="732"/>
      <point x="418" y="648"/>
      <point x="438" y="513" type="curve"/>
      <point x="342" y="489" type="line"/>
      <point x="328" y="601"/>
      <point x="301" y="654"/>
      <point x="242" y="654" type="curve" smooth="yes"/>
      <point x="170" y="654"/>
      <point x="138" y="558"/>
      <point x="138" y="421" type="curve" smooth="yes"/>
      <point x="138" y="300" type="line" smooth="yes"/>
      <point x="138" y="160"/>
      <point x="173" y="66"/>
      <point x="245" y="66" type="curve" smooth="yes"/>
      <point x="303" y="66"/>
      <point x="331" y="119"/>
      <point x="348" y="239" type="curve"/>
    </contour>
  </outline>
</glyph>
<glyph name="Eth" format="1">
  <advance width="519"/>
  <unicode hex="00D0"/>
  <outline>
    <contour>
      <point x="484" y="315" type="line" smooth="yes"/>
      <point x="484" y="110"/>
      <point x="391" y="0"/>
      <point x="238" y="0" type="curve" smooth="yes"/>
      <point x="79" y="0" type="line"/>
      <point x="79" y="336" type="line"/>
      <point x="19" y="336" type="line"/>
      <point x="19" y="413" type="line"/>
      <point x="79" y="413" type="line"/>
      <point x="79" y="720" type="line"/>
      <point x="241" y="720" type="line" smooth="yes"/>
      <point x="394" y="720"/>
      <point x="484" y="610"/>
      <point x="484" y="406" type="curve" smooth="yes"/>
    </contour>
    <contour>
      <point x="381" y="293" type="curve" smooth="yes"/>
      <point x="381" y="426" type="line" smooth="yes"/>
      <point x="381" y="567"/>
      <point x="331" y="644"/>
      <point x="233" y="644" type="curve" smooth="yes"/>
      <point x="182" y="644" type="line"/>
      <point x="182" y="413" type="line"/>
      <point x="267" y="413" type="line"/>
      <point x="267" y="336" type="line"/>
      <point x="182" y="336" type="line"/>
      <point x="182" y="76" type="line"/>
      <point x="236" y="76" type="line" smooth="yes"/>
      <point x="330" y="76"/>
      <point x="381" y="153"/>
    </contour>
  </outline>
</glyph>
<glyph name="Thorn" format="1">
  <advance width="455"/>
  <unicode hex="00DE"/>
  <outline>
    <contour>
      <point x="433" y="374" type="curve" smooth="yes"/>
      <point x="433" y="231"/>
      <point x="351" y="154"/>
      <point x="208" y="154" type="curve" smooth="yes"/>
      <point x="155" y="154" type="line"/>
      <point x="155" y="0" type="line"/>
      <point x="54" y="0" type="line"/>
      <point x="54" y="720" type="line"/>
      <point x="155" y="720" type="line"/>
      <point x="155" y="587" type="line"/>
      <point x="209" y="587" type="line" smooth="yes"/>
      <point x="350" y="587"/>
      <point x="433" y="514"/>
    </contour>
    <contour>
      <point x="335" y="371" type="curve" smooth="yes"/>
      <point x="335" y="462"/>
      <point x="294" y="511"/>
      <point x="212" y="511" type="curve" smooth="yes"/>
      <point x="154" y="511" type="line"/>
      <point x="154" y="231" type="line"/>
      <point x="214" y="231" type="line" smooth="yes"/>
      <point x="295" y="231"/>
      <point x="335" y="280"/>
    </contour>
  </outline>
</glyph>
<glyph name="germandbls" format="1">
  <advance width="482"/>
  <unicode hex="00DF"/>
  <outline>
    <contour>
      <point x="456" y="187" type="curve" smooth="yes"/>
      <point x="456" y="58"/>
      <point x="392" y="-9"/>
      <point x="301" y="-9" type="curve" smooth="yes"/>
      <point x="250" y="-9"/>
      <point x="223" y="8"/>
      <point x="198" y="32" type="curve"/>
      <point x="215" y="98" type="line"/>
      <point x="233" y="77"/>
      <point x="251" y="62"/>
      <point x="282" y="62" type="curve" smooth="yes"/>
      <point x="324" y="62"/>
      <point x="360" y="104"/>
      <point x="360" y="187" type="curve" smooth="yes"/>
      <point x="360" y="294"/>
      <point x="310" y="362"/>
      <point x="215" y="379" type="curve"/>
      <point x="215" y="443" type="line"/>
      <point x="282" y="448"/>
      <point x="313" y="507"/>
      <point x="313" y="577" type="curve" smooth="yes"/>
      <point x="313" y="642"/>
      <point x="287" y="692"/>
      <point x="232" y="692" type="curve" smooth="yes"/>
      <point x="172" y="692"/>
      <point x="147" y="644"/>
      <point x="147" y="555" type="curve" smooth="yes"/>
      <point x="147" y="0" type="line"/>
      <point x="46" y="0" type="line"/>
      <point x="46" y="543" type="line" smooth="yes"/>
      <point x="46" y="688"/>
      <point x="122" y="759"/>
      <point x="232" y="759" type="curve" smooth="yes"/>
      <point x="341" y="759"/>
      <point x="407" y="686"/>
      <point x="407" y="584" type="curve" smooth="yes"/>
      <point x="407" y="491"/>
      <point x="358" y="437"/>
      <point x="310" y="417" type="curve"/>
      <point x="310" y="411" type="line"/>
      <point x="389" y="381"/>
      <point x="456" y="310"/>
    </contour>
  </outline>
</glyph>
<glyph name="eth" format="1">
  <advance width="408"/>
  <unicode hex="00F0"/>
  <outline>
    <contour>
      <point x="383" y="244" type="line" smooth="yes"/>
      <point x="383" y="85"/>
      <point x="311" y="-10"/>
      <point x="203" y="-10" type="curve" smooth="yes"/>
      <point x="94" y="-10"/>
      <point x="29" y="85"/>
      <point x="29" y="244" type="curve" smooth="yes"/>
      <point x="29" y="280" type="line" smooth="yes"/>
      <point x="29" y="439"/>
      <point x="88" y="530"/>
      <point x="183" y="530" type="curve" smooth="yes"/>
      <point x="230" y="530"/>
      <point x="265" y="494"/>
      <point x="288" y="439" type="curve"/>
      <point x="293" y="439" type="line"/>
      <point x="284" y="511"/>
      <point x="252" y="581"/>
      <point x="208" y="641" type="curve"/>
      <point x="118" y="582" type="line"/>
      <point x="118" y="629" type="line"/>
      <point x="182" y="672" type="line"/>
      <point x="164" y="694"/>
      <point x="145" y="714"/>
      <point x="124" y="732" type="curve"/>
      <point x="199" y="762" type="line"/>
      <point x="215" y="745"/>
      <point x="233" y="727"/>
      <point x="250" y="706" type="curve"/>
      <point x="339" y="762" type="line"/>
      <point x="339" y="717" type="line"/>
      <point x="274" y="675" type="line"/>
      <point x="335" y="590"/>
      <point x="383" y="472"/>
      <point x="383" y="297" type="curve" smooth="yes"/>
    </contour>
    <contour>
      <point x="288" y="240" type="curve" smooth="yes"/>
      <point x="288" y="284" type="line" smooth="yes"/>
      <point x="288" y="407"/>
      <point x="257" y="469"/>
      <point x="205" y="469" type="curve" smooth="yes"/>
      <point x="154" y="469"/>
      <point x="124" y="407"/>
      <point x="124" y="284" type="curve" smooth="yes"/>
      <point x="124" y="240" type="line" smooth="yes"/>
      <point x="124" y="117"/>
      <point x="155" y="55"/>
      <point x="207" y="55" type="curve" smooth="yes"/>
      <point x="258" y="55"/>
      <point x="288" y="117"/>
    </contour>
  </outline>
</glyph>
<glyph name="divide" format="1">
  <advance width="474"/>
  <unicode hex="00F7"/>
  <outline>
    <contour>
      <point x="296" y="540" type="curve" smooth="yes"/>
      <point x="296" y="507"/>
      <point x="271" y="482"/>
      <point x="237" y="482" type="curve" smooth="yes"/>
      <point x="203" y="482"/>
      <point x="178" y="507"/>
      <point x="178" y="540" type="curve" smooth="yes"/>
      <point x="178" y="574"/>
      <point x="203" y="599"/>
      <point x="237" y="599" type="curve" smooth="yes"/>
      <point x="271" y="599"/>
      <point x="296" y="574"/>
    </contour>
    <contour>
      <point x="442" y="314" type="line"/>
      <point x="31" y="314" type="line"/>
      <point x="31" y="395" type="line"/>
      <point x="442" y="395" type="line"/>
    </contour>
    <contour>
      <point x="296" y="169" type="curve" smooth="yes"/>
      <point x="296" y="135"/>
      <point x="271" y="111"/>
      <point x="237" y="111" type="curve" smooth="yes"/>
      <point x="203" y="111"/>
      <point x="178" y="135"/>
      <point x="178" y="169" type="curve" smooth="yes"/>
      <point x="178" y="203"/>
      <point x="203" y="228"/>
      <point x="237" y="228" type="curve" smooth="yes"/>
      <point x="271" y="228"/>
      <point x="296" y="203"/>
    </contour>
  </outline>
</glyph>
<glyph name="thorn" format="1">
  <advance width="427"/>
  <unicode hex="00FE"/>
  <outline>
    <contour>
      <point x="398" y="246" type="line" smooth="yes"/>
      <point x="398" y="75"/>
      <point x="336" y="-9"/>
      <point x="264" y="-9" type="curve" smooth="yes"/>
      <point x="213" y="-9"/>
      <point x="175" y="34"/>
      <point x="146" y="89" type="curve"/>
      <point x="142" y="89" type="line"/>
      <point x="142" y="-188" type="line"/>
      <point x="45" y="-188" type="line"/>
      <point x="45" y="737" type="line"/>
      <point x="142" y="759" type="line"/>
      <point x="142" y="430" type="line"/>
      <point x="146" y="430" type="line"/>
      <point x="176" y="489"/>
      <point x="212" y="533"/>
      <point x="266" y="533" type="curve" smooth="yes"/>
      <point x="339" y="533"/>
      <point x="398" y="451"/>
      <point x="398" y="279" type="curve" smooth="yes"/>
    </contour>
    <contour>
      <point x="303" y="262" type="curve" smooth="yes"/>
      <point x="303" y="406"/>
      <point x="270" y="464"/>
      <point x="225" y="464" type="curve" smooth="yes"/>
      <point x="177" y="464"/>
      <point x="137" y="382"/>
      <point x="137" y="262" type="curve" smooth="yes"/>
      <point x="137" y="143"/>
      <point x="176" y="61"/>
      <point x="227" y="61" type="curve" smooth="yes"/>
      <point x="271" y="61"/>
      <point x="303" y="123"/>
    </contour>
  </outline>
</glyph>
<glyph name="Lslash" format="1">
  <advance width="423"/>
  <unicode hex="0141"/>
  <outline>
    <contour>
      <point x="413" y="0" type="line"/>
      <point x="79" y="0" type="line"/>
      <point x="79" y="306" type="line"/>
      <point x="21" y="272" type="line"/>
      <point x="21" y="361" type="line"/>
      <point x="79" y="394" type="line"/>
      <point x="79" y="720" type="line"/>
      <point x="182" y="720" type="line"/>
      <point x="182" y="447" type="line"/>
      <point x="288" y="507" type="line"/>
      <point x="288" y="418" type="line"/>
      <point x="182" y="358" type="line"/>
      <point x="182" y="83" type="line"/>
      <point x="413" y="83" type="line"/>
    </contour>
  </outline>
</glyph>
<glyph name="OE" format="1">
  <advance width="709"/>
  <unicode hex="0152"/>
  <outline>
    <contour>
      <point x="686" y="0" type="line"/>
      <point x="277" y="0" type="line" smooth="yes"/>
      <point x="127" y="0"/>
      <point x="35" y="108"/>
      <point x="35" y="314" type="curve" smooth="yes"/>
      <point x="35" y="405" type="line" smooth="yes"/>
      <point x="35" y="614"/>
      <point x="130" y="720"/>
      <point x="279" y="720" type="curve" smooth="yes"/>
      <point x="676" y="720" type="line"/>
      <point x="676" y="638" type="line"/>
      <point x="436" y="638" type="line"/>
      <point x="436" y="414" type="line"/>
      <point x="625" y="414" type="line"/>
      <point x="625" y="336" type="line"/>
      <point x="436" y="336" type="line"/>
      <point x="436" y="82" type="line"/>
      <point x="686" y="82" type="line"/>
    </contour>
    <contour>
      <point x="336" y="74" type="line"/>
      <point x="336" y="646" type="line"/>
      <point x="282" y="646" type="line" smooth="yes"/>
      <point x="188" y="646"/>
      <point x="135" y="565"/>
      <point x="135" y="427" type="curve" smooth="yes"/>
      <point x="135" y="294" type="line" smooth="yes"/>
      <point x="135" y="155"/>
      <point x="187" y="74"/>
      <point x="284" y="74" type="curve" smooth="yes"/>
    </contour>
  </outline>
</glyph>
<glyph name="oe" format="1">
  <advance width="656"/>
  <unicode hex="0153"/>
  <outline>
    <contour>
      <point x="629" y="240" type="line"/>
      <point x="381" y="240" type="line"/>
      <point x="381" y="226" type="line" smooth="yes"/>
      <point x="381" y="118"/>
      <point x="423" y="65"/>
      <point x="489" y="65" type="curve" smooth="yes"/>
      <point x="528" y="65"/>
      <point x="568" y="83"/>
      <point x="604" y="114" type="curve"/>
      <point x="630" y="51" type="line"/>
      <point x="587" y="15"/>
      <point x="535" y="-9"/>
      <point x="476" y="-9" type="curve" smooth="yes"/>
      <point x="410" y="-9"/>
      <point x="361" y="33"/>
      <point x="341" y="104" type="curve"/>
      <point x="335" y="104" type="line"/>
      <point x="315" y="37"/>
      <point x="270" y="-10"/>
      <point x="204" y="-10" type="curve" smooth="yes"/>
      <point x="96" y="-10"/>
      <point x="28" y="90"/>
      <point x="28" y="240" type="curve" smooth="yes"/>
      <point x="28" y="285" type="line" smooth="yes"/>
      <point x="28" y="434"/>
      <point x="97" y="534"/>
      <point x="205" y="534" type="curve" smooth="yes"/>
      <point x="267" y="534"/>
      <point x="318" y="487"/>
      <point x="334" y="420" type="curve"/>
      <point x="340" y="420" type="line"/>
      <point x="357" y="488"/>
      <point x="407" y="534"/>
      <point x="466" y="534" type="curve" smooth="yes"/>
      <point x="568" y="534"/>
      <point x="629" y="431"/>
      <point x="629" y="268" type="curve" smooth="yes"/>
    </contour>
    <contour>
      <point x="540" y="287" type="line"/>
      <point x="538" y="406"/>
      <point x="510" y="471"/>
      <point x="463" y="471" type="curve" smooth="yes"/>
      <point x="411" y="471"/>
      <point x="381" y="408"/>
      <point x="381" y="289" type="curve" smooth="yes"/>
      <point x="381" y="287" type="line"/>
    </contour>
    <contour>
      <point x="290" y="230" type="curve" smooth="yes"/>
      <point x="290" y="294" type="line" smooth="yes"/>
      <point x="290" y="403"/>
      <point x="258" y="469"/>
      <point x="206" y="469" type="curve" smooth="yes"/>
      <point x="153" y="469"/>
      <point x="124" y="403"/>
      <point x="124" y="294" type="curve" smooth="yes"/>
      <point x="124" y="230" type="line" smooth="yes"/>
      <point x="124" y="121"/>
      <point x="155" y="55"/>
      <point x="207" y="55" type="curve" smooth="yes"/>
      <point x="259" y="55"/>
      <point x="290" y="121"/>
    </contour>
  </outline>
</glyph>
<glyph name="circumflex" format="1">
  <advance width="394"/>
  <unicode hex="02C6"/>
  <outline>
    <contour>
      <point x="320" y="576" type="line"/>
      <point x="274" y="576" type="line"/>
      <point x="197" y="650" type="line"/>
      <point x="120" y="576" type="line"/>
      <point x="74" y="576" type="line"/>
      <point x="159" y="705" type="line"/>
      <point x="236" y="705" type="line"/>
    </contour>
  </outline>
</glyph>
<glyph name="caron" format="1">
  <advance width="394"/>
  <unicode hex="02C7"/>
  <outline>
    <contour>
      <point x="320" y="708" type="line"/>
      <point x="236" y="579" type="line"/>
      <point x="159" y="579" type="line"/>
      <point x="74" y="708" type="line"/>
      <point x="120" y="708" type="line"/>
      <point x="197" y="635" type="line"/>
      <point x="274" y="708" type="line"/>
    </contour>
  </outline>
</glyph>
<glyph name="breve" format="1">
  <advance width="394"/>
  <unicode hex="02D8"/>
  <outline>
    <contour>
      <point x="315" y="708" type="line"/>
      <point x="312" y="626"/>
      <point x="274" y="576"/>
      <point x="197" y="576" type="curve" smooth="yes"/>
      <point x="120" y="576"/>
      <point x="82" y="626"/>
      <point x="79" y="708" type="curve"/>
      <point x="120" y="708" type="line"/>
      <point x="127" y="657"/>
      <point x="154" y="634"/>
      <point x="197" y="634" type="curve" smooth="yes"/>
      <point x="240" y="634"/>
      <point x="268" y="657"/>
      <point x="275" y="708" type="curve"/>
    </contour>
  </outline>
</glyph>
<glyph name="dotaccent" format="1">
  <advance width="394"/>
  <unicode hex="02D9"/>
  <outline>
    <contour>
      <point x="241" y="579" type="line"/>
      <point x="153" y="579" type="line"/>
      <point x="153" y="673" type="line"/>
      <point x="241" y="673" type="line"/>
    </contour>
  </outline>
</glyph>
<glyph name="tilde" format="1">
  <advance width="394"/>
  <unicode hex="02DC"/>
  <outline>
    <contour>
      <point x="327" y="682" type="line"/>
      <point x="329" y="611"/>
      <point x="307" y="579"/>
      <point x="258" y="579" type="curve" smooth="yes"/>
      <point x="210" y="579"/>
      <point x="171" y="621"/>
      <point x="141" y="621" type="curve" smooth="yes"/>
      <point x="120" y="621"/>
      <point x="111" y="609"/>
      <point x="111" y="581" type="curve"/>
      <point x="68" y="581" type="line"/>
      <point x="65" y="651"/>
      <point x="88" y="684"/>
      <point x="136" y="684" type="curve" smooth="yes"/>
      <point x="185" y="684"/>
      <point x="223" y="642"/>
      <point x="253" y="642" type="curve" smooth="yes"/>
      <point x="273" y="642"/>
      <point x="283" y="654"/>
      <point x="283" y="682" type="curve"/>
    </contour>
  </outline>
</glyph>
<glyph name="hungarumlaut" format="1">
  <advance width="394"/>
  <unicode hex="02DD"/>
  <outline>
    <contour>
      <point x="360" y="705" type="line"/>
      <point x="247" y="579" type="line"/>
      <point x="191" y="579" type="line"/>
      <point x="258" y="705" type="line"/>
    </contour>
    <contour>
      <point x="209" y="705" type="line"/>
      <point x="94" y="579" type="line"/>
      <point x="40" y="579" type="line"/>
      <point x="107" y="705" type="line"/>
    </contour>
  </outline>
</glyph>
<glyph name="endash" format="1">
  <advance width="398"/>
  <unicode hex="2013"/>
  <outline>
    <contour>
      <point x="370" y="245" type="line"/>
      <point x="28" y="245" type="line"/>
      <point x="28" y="324" type="line"/>
      <point x="370" y="324" type="line"/>
    </contour>
  </outline>
</glyph>
<glyph name="quoteleft" format="1">
  <advance width="174"/>
  <unicode hex="2018"/>
  <unicode hex="02BB"/>
  <outline>
    <contour>
      <point x="149" y="493" type="line"/>
      <point x="105" y="493" type="line"/>
      <point x="23" y="720" type="line"/>
      <point x="121" y="720" type="line"/>
    </contour>
  </outline>
</glyph>
<glyph name="dagger" format="1">
  <advance width="364"/>
  <unicode hex="2020"/>
  <outline>
    <contour>
      <point x="341" y="453" type="line"/>
      <point x="207" y="477" type="line"/>
      <point x="229" y="343" type="line"/>
      <point x="199" y="0" type="line"/>
      <point x="165" y="0" type="line"/>
      <point x="134" y="343" type="line"/>
      <point x="157" y="477" type="line"/>
      <point x="22" y="453" type="line"/>
      <point x="22" y="536" type="line"/>
      <point x="157" y="511" type="line"/>
      <point x="134" y="720" type="line"/>
      <point x="229" y="720" type="line"/>
      <point x="207" y="511" type="line"/>
      <point x="341" y="536" type="line"/>
    </contour>
  </outline>
</glyph>
<glyph name="guilsinglleft" format="1">
  <advance width="221"/>
  <unicode hex="2039"/>
  <outline>
    <contour>
      <point x="195" y="74" type="line"/>
      <point x="142" y="74" type="line"/>
      <point x="15" y="262" type="line"/>
      <point x="142" y="450" type="line"/>
      <point x="195" y="450" type="line"/>
      <point x="113" y="262" type="line"/>
    </contour>
  </outline>
</glyph>
<glyph name="guilsinglright" format="1">
  <advance width="216"/>
  <unicode hex="203A"/>
  <outline>
    <contour>
      <point x="207" y="262" type="line"/>
      <point x="79" y="74" type="line"/>
      <point x="26" y="74" type="line"/>
      <point x="109" y="262" type="line"/>
      <point x="26" y="450" type="line"/>
      <point x="79" y="450" type="line"/>
    </contour>
  </outline>
</glyph>
<glyph name="fraction" format="1">
  <advance width="308"/>
  <unicode hex="2044"/>
  <outline>
    <contour>
      <point x="347" y="735" type="line"/>
      <point x="43" y="-15" type="line"/>
      <point x="-38" y="-15" type="line"/>
      <point x="266" y="735" type="line"/>
    </contour>
  </outline>
</glyph>
<glyph name="uni2117" format="1">
  <advance width="656"/>
  <unicode hex="2117"/>
  <outline>
    <contour>
      <point x="625" y="360" type="curve" smooth="yes"/>
      <point x="625" y="147"/>
      <point x="501" y="-12"/>
      <point x="328" y="-12" type="curve" smooth="yes"/>
      <point x="156" y="-12"/>
      <point x="32" y="146"/>
      <point x="32" y="360" type="curve" smooth="yes"/>
      <point x="32" y="574"/>
      <point x="156" y="732"/>
      <point x="329" y="732" type="curve" smooth="yes"/>
      <point x="501" y="732"/>
      <point x="625" y="574"/>
    </contour>
    <contour>
      <point x="592" y="360" type="curve" smooth="yes"/>
      <point x="592" y="554"/>
      <point x="486" y="702"/>
      <point x="328" y="702" type="curve" smooth="yes"/>
      <point x="170" y="702"/>
      <point x="65" y="555"/>
      <point x="65" y="360" type="curve" smooth="yes"/>
      <point x="65" y="166"/>
      <point x="170" y="18"/>
      <point x="329" y="18" type="curve" smooth="yes"/>
      <point x="487" y="18"/>
      <point x="592" y="165"/>
    </contour>
    <contour>
      <point x="466" y="444" type="curve" smooth="yes"/>
      <point x="466" y="359"/>
      <point x="419" y="313"/>
      <point x="334" y="313" type="curve" smooth="yes"/>
      <point x="307" y="313" type="line"/>
      <point x="307" y="156" type="line"/>
      <point x="239" y="156" type="line"/>
      <point x="239" y="569" type="line"/>
      <point x="334" y="569" type="line" smooth="yes"/>
      <point x="418" y="569"/>
      <point x="466" y="526"/>
    </contour>
    <contour>
      <point x="400" y="442" type="curve" smooth="yes"/>
      <point x="400" y="490"/>
      <point x="378" y="516"/>
      <point x="335" y="516" type="curve" smooth="yes"/>
      <point x="307" y="516" type="line"/>
      <point x="307" y="367" type="line"/>
      <point x="336" y="367" type="line" smooth="yes"/>
      <point x="379" y="367"/>
      <point x="400" y="393"/>
    </contour>
  </outline>
</glyph>
<glyph name="trademark" format="1">
  <advance width="551"/>
  <unicode hex="2122"/>
  <outline>
    <contour>
      <point x="518" y="431" type="line"/>
      <point x="466" y="431" type="line"/>
      <point x="466" y="656" type="line"/>
      <point x="464" y="656" type="line"/>
      <point x="410" y="431" type="line"/>
      <point x="352" y="431" type="line"/>
      <point x="298" y="656" type="line"/>
      <point x="296" y="656" type="line"/>
      <point x="296" y="431" type="line"/>
      <point x="248" y="431" type="line"/>
      <point x="248" y="720" type="line"/>
      <point x="331" y="720" type="line"/>
      <point x="383" y="500" type="line"/>
      <point x="385" y="500" type="line"/>
      <point x="436" y="720" type="line"/>
      <point x="518" y="720" type="line"/>
    </contour>
    <contour>
      <point x="212" y="674" type="line"/>
      <point x="143" y="674" type="line"/>
      <point x="143" y="431" type="line"/>
      <point x="88" y="431" type="line"/>
      <point x="88" y="674" type="line"/>
      <point x="20" y="674" type="line"/>
      <point x="20" y="720" type="line"/>
      <point x="212" y="720" type="line"/>
    </contour>
  </outline>
</glyph>
<glyph name="minus" format="1">
  <advance width="474"/>
  <unicode hex="2212"/>
  <outline>
    <contour>
      <point x="442" y="313" type="line"/>
      <point x="31" y="313" type="line"/>
      <point x="31" y="395" type="line"/>
      <point x="442" y="395" type="line"/>
    </contour>
  </outline>
</glyph>
<glyph name="apple" format="1">
  <advance width="500"/>
  <unicode hex="F8FF"/>
  <outline>
    <contour>
      <point x="465" y="188" type="line"/>
      <point x="433" y="92" type="line"/>
      <point x="268" y="182" type="line"/>
      <point x="301" y="0" type="line"/>
      <point x="199" y="0" type="line"/>
      <point x="232" y="182" type="line"/>
      <point x="67" y="92" type="line"/>
      <point x="35" y="188" type="line"/>
      <point x="219" y="215" type="line"/>
      <point x="75" y="357" type="line"/>
      <point x="75" y="363" type="line"/>
      <point x="219" y="505" type="line"/>
      <point x="35" y="532" type="line"/>
      <point x="67" y="628" type="line"/>
      <point x="232" y="538" type="line"/>
      <point x="199" y="720" type="line"/>
      <point x="301" y="720" type="line"/>
      <point x="268" y="538" type="line"/>
      <point x="433" y="628" type="line"/>
      <point x="465" y="532" type="line"/>
      <point x="281" y="505" type="line"/>
      <point x="425" y="363" type="line"/>
      <point x="425" y="357" type="line"/>
      <point x="281" y="215" type="line"/>
    </contour>
    <contour>
      <point x="333" y="360" type="line"/>
      <point x="250" y="494" type="line"/>
      <point x="167" y="360" type="line"/>
      <point x="250" y="226" type="line"/>
    </contour>
  </outline>
</glyph>
<glyph name="fi" format="1">
  <advance width="474"/>
  <unicode hex="FB01"/>
  <outline>
    <contour>
      <point x="427" y="626" type="line"/>
      <point x="323" y="626" type="line"/>
      <point x="323" y="720" type="line"/>
      <point x="427" y="720" type="line"/>
    </contour>
    <contour>
      <point x="424" y="0" type="line"/>
      <point x="327" y="0" type="line"/>
      <point x="327" y="524" type="line"/>
      <point x="424" y="524" type="line"/>
    </contour>
    <contour>
      <point x="285" y="679" type="line"/>
      <point x="270" y="688"/>
      <point x="257" y="692"/>
      <point x="235" y="692" type="curve" smooth="yes"/>
      <point x="201" y="692"/>
      <point x="179" y="672"/>
      <point x="179" y="622" type="curve" smooth="yes"/>
      <point x="179" y="521" type="line"/>
      <point x="271" y="521" type="line"/>
      <point x="271" y="454" type="line"/>
      <point x="179" y="454" type="line"/>
      <point x="179" y="0" type="line"/>
      <point x="84" y="0" type="line"/>
      <point x="84" y="454" type="line"/>
      <point x="8" y="454" type="line"/>
      <point x="8" y="521" type="line"/>
      <point x="84" y="521" type="line"/>
      <point x="84" y="628" type="line" smooth="yes"/>
      <point x="84" y="715"/>
      <point x="131" y="759"/>
      <point x="208" y="759" type="curve" smooth="yes"/>
      <point x="245" y="759"/>
      <point x="265" y="756"/>
      <point x="285" y="749" type="curve"/>
    </contour>
  </outline>
</glyph>
<glyph name="bullet" format="1">
  <advance width="322"/>
  <outline>
    <contour>
      <point x="281" y="373" type="curve" smooth="yes"/>
      <point x="281" y="306"/>
      <point x="229" y="253"/>
      <point x="161" y="253" type="curve" smooth="yes"/>
      <point x="94" y="253"/>
      <point x="41" y="306"/>
      <point x="41" y="373" type="curve" smooth="yes"/>
      <point x="41" y="440"/>
      <point x="94" y="493"/>
      <point x="161" y="493" type="curve" smooth="yes"/>
      <point x="229" y="493"/>
      <point x="281" y="440"/>
    </contour>
  </outline>
</glyph>
<glyph name="macron" format="1">
  <advance width="394"/>
  <outline>
    <contour>
      <point x="312" y="614" type="line"/>
      <point x="82" y="614" type="line"/>
      <point x="82" y="673" type="line"/>
      <point x="312" y="673" type="line"/>
    </contour>
  </outline>
</glyph>
<glyph name="registered.big" format="1">
  <advance width="656"/>
  <outline>
    <contour>
      <point x="625" y="360" type="curve" smooth="yes"/>
      <point x="625" y="147"/>
      <point x="501" y="-12"/>
      <point x="328" y="-12" type="curve" smooth="yes"/>
      <point x="156" y="-12"/>
      <point x="32" y="146"/>
      <point x="32" y="360" type="curve" smooth="yes"/>
      <point x="32" y="574"/>
      <point x="156" y="732"/>
      <point x="329" y="732" type="curve" smooth="yes"/>
      <point x="501" y="732"/>
      <point x="625" y="574"/>
    </contour>
    <contour>
      <point x="592" y="360" type="curve" smooth="yes"/>
      <point x="592" y="554"/>
      <point x="486" y="702"/>
      <point x="328" y="702" type="curve" smooth="yes"/>
      <point x="170" y="702"/>
      <point x="65" y="555"/>
      <point x="65" y="360" type="curve" smooth="yes"/>
      <point x="65" y="166"/>
      <point x="170" y="18"/>
      <point x="329" y="18" type="curve" smooth="yes"/>
      <point x="487" y="18"/>
      <point x="592" y="165"/>
    </contour>
    <contour>
      <point x="466" y="159" type="line"/>
      <point x="395" y="159" type="line"/>
      <point x="321" y="328" type="line"/>
      <point x="290" y="328" type="line"/>
      <point x="290" y="159" type="line"/>
      <point x="223" y="159" type="line"/>
      <point x="223" y="573" type="line"/>
      <point x="327" y="573" type="line" smooth="yes"/>
      <point x="403" y="573"/>
      <point x="454" y="534"/>
      <point x="454" y="454" type="curve" smooth="yes"/>
      <point x="454" y="394"/>
      <point x="426" y="359"/>
      <point x="383" y="343" type="curve"/>
    </contour>
    <contour>
      <point x="387" y="450" type="curve" smooth="yes"/>
      <point x="387" y="497"/>
      <point x="365" y="521"/>
      <point x="322" y="521" type="curve" smooth="yes"/>
      <point x="290" y="521" type="line"/>
      <point x="290" y="378" type="line"/>
      <point x="323" y="378" type="line" smooth="yes"/>
      <point x="365" y="378"/>
      <point x="387" y="401"/>
    </contour>
  </outline>
</glyph>
<glyph name="registered" format="1">
  <advance width="362"/>
  <outline>
    <contour>
      <point x="338" y="552" type="curve" smooth="yes"/>
      <point x="338" y="453"/>
      <point x="271" y="378"/>
      <point x="181" y="378" type="curve" smooth="yes"/>
      <point x="91" y="378"/>
      <point x="24" y="452"/>
      <point x="24" y="551" type="curve" smooth="yes"/>
      <point x="24" y="651"/>
      <point x="91" y="726"/>
      <point x="181" y="726" type="curve" smooth="yes"/>
      <point x="271" y="726"/>
      <point x="338" y="651"/>
    </contour>
    <contour>
      <point x="318" y="551" type="curve" smooth="yes"/>
      <point x="318" y="639"/>
      <point x="261" y="707"/>
      <point x="181" y="707" type="curve" smooth="yes"/>
      <point x="100" y="707"/>
      <point x="44" y="639"/>
      <point x="44" y="552" type="curve" smooth="yes"/>
      <point x="44" y="465"/>
      <point x="101" y="396"/>
      <point x="181" y="396" type="curve" smooth="yes"/>
      <point x="262" y="396"/>
      <point x="318" y="464"/>
    </contour>
    <contour>
      <point x="260" y="456" type="line"/>
      <point x="213" y="456" type="line"/>
      <point x="175" y="534" type="line"/>
      <point x="163" y="534" type="line"/>
      <point x="163" y="456" type="line"/>
      <point x="122" y="456" type="line"/>
      <point x="122" y="655" type="line"/>
      <point x="182" y="655" type="line" smooth="yes"/>
      <point x="222" y="655"/>
      <point x="250" y="636"/>
      <point x="250" y="596" type="curve" smooth="yes"/>
      <point x="250" y="569"/>
      <point x="236" y="551"/>
      <point x="216" y="542" type="curve"/>
    </contour>
    <contour>
      <point x="209" y="595" type="curve" smooth="yes"/>
      <point x="209" y="613"/>
      <point x="199" y="623"/>
      <point x="179" y="623" type="curve" smooth="yes"/>
      <point x="163" y="623" type="line"/>
      <point x="163" y="564" type="line"/>
      <point x="180" y="564" type="line" smooth="yes"/>
      <point x="199" y="564"/>
      <point x="209" y="576"/>
    </contour>
  </outline>
</glyph>
